<svg width="736" height="1024" viewBox="0 0 736 1024" fill="none" xmlns="http://www.w3.org/2000/svg">
<rect width="737" height="1024" fill="#45ADE8"/>
<path d="M145.272 729.508C127.851 716.201 50.9962 654.242 43.0592 564.552C31.9232 438.737 165.463 360.16 202.092 338.572C286.079 289.183 487.96 214.647 615.95 325.988C718.461 415.168 710.41 579.189 647.028 673.027C542.579 827.648 283.507 835.094 145.272 729.508Z" fill="#45ADE8"/>
<path d="M613.193 510.018H569.81C569.023 510.018 568.385 510.652 568.385 511.434V529.079C568.385 529.86 569.023 530.494 569.81 530.494H613.193C613.98 530.494 614.618 529.86 614.618 529.079V511.434C614.618 510.652 613.98 510.018 613.193 510.018Z" stroke="#C9EFFB" stroke-width="2" stroke-miterlimit="10"/>
<path d="M613.193 550.899H569.81C569.023 550.899 568.385 551.533 568.385 552.315V569.96C568.385 570.741 569.023 571.375 569.81 571.375H613.193C613.98 571.375 614.618 570.741 614.618 569.96V552.315C614.618 551.533 613.98 550.899 613.193 550.899Z" stroke="#C9EFFB" stroke-width="2" stroke-miterlimit="10"/>
<path d="M636.306 530.495H592.923C592.136 530.495 591.498 531.128 591.498 531.91V549.555C591.498 550.337 592.136 550.971 592.923 550.971H636.306C637.093 550.971 637.731 550.337 637.731 549.555V531.91C637.731 531.128 637.093 530.495 636.306 530.495Z" fill="#C9EFFB"/>
<path d="M590.08 530.495H546.697C545.91 530.495 545.272 531.128 545.272 531.91V549.555C545.272 550.337 545.91 550.971 546.697 550.971H590.08C590.867 550.971 591.505 550.337 591.505 549.555V531.91C591.505 531.128 590.867 530.495 590.08 530.495Z" fill="#C9EFFB"/>
<path d="M106.064 611.224H62.6808C61.8938 611.224 61.2559 611.857 61.2559 612.639V630.284C61.2559 631.066 61.8938 631.7 62.6808 631.7H106.064C106.851 631.7 107.489 631.066 107.489 630.284V612.639C107.489 611.857 106.851 611.224 106.064 611.224Z" stroke="#C9EFFB" stroke-width="2" stroke-miterlimit="10"/>
<path d="M129.177 652.105H85.7941C85.0071 652.105 84.3691 652.739 84.3691 653.52V671.165C84.3691 671.947 85.0071 672.581 85.7941 672.581H129.177C129.964 672.581 130.602 671.947 130.602 671.165V653.52C130.602 652.739 129.964 652.105 129.177 652.105Z" stroke="#C9EFFB" stroke-width="2" stroke-miterlimit="10"/>
<path d="M138.788 631.699H95.4054C94.6184 631.699 93.9805 632.333 93.9805 633.115V650.76C93.9805 651.542 94.6184 652.176 95.4054 652.176H138.788C139.575 652.176 140.213 651.542 140.213 650.76V633.115C140.213 632.333 139.575 631.699 138.788 631.699Z" fill="#C9EFFB"/>
<path d="M92.5554 631.699H49.1725C48.3855 631.699 47.7476 632.333 47.7476 633.115V650.76C47.7476 651.542 48.3855 652.176 49.1725 652.176H92.5554C93.3424 652.176 93.9804 651.542 93.9804 650.76V633.115C93.9804 632.333 93.3424 631.699 92.5554 631.699Z" fill="#C9EFFB"/>
<path d="M374.954 338.424H331.571C330.784 338.424 330.146 339.058 330.146 339.84V357.484C330.146 358.266 330.784 358.9 331.571 358.9H374.954C375.741 358.9 376.379 358.266 376.379 357.484V339.84C376.379 339.058 375.741 338.424 374.954 338.424Z" fill="#C9EFFB"/>
<path d="M390.572 379.376H347.189C346.402 379.376 345.764 380.01 345.764 380.792V398.436C345.764 399.218 346.402 399.852 347.189 399.852H390.572C391.359 399.852 391.996 399.218 391.996 398.436V380.792C391.996 380.01 391.359 379.376 390.572 379.376Z" fill="#C9EFFB"/>
<path d="M407.671 358.9H364.288C363.501 358.9 362.863 359.534 362.863 360.315V377.96C362.863 378.742 363.501 379.376 364.288 379.376H407.671C408.458 379.376 409.096 378.742 409.096 377.96V360.315C409.096 359.534 408.458 358.9 407.671 358.9Z" stroke="#C9EFFB" stroke-width="2" stroke-miterlimit="10"/>
<path d="M361.445 358.9H318.062C317.275 358.9 316.637 359.534 316.637 360.315V377.96C316.637 378.742 317.275 379.376 318.062 379.376H361.445C362.232 379.376 362.87 378.742 362.87 377.96V360.315C362.87 359.534 362.232 358.9 361.445 358.9Z" stroke="#C9EFFB" stroke-width="2" stroke-miterlimit="10"/>
<path d="M133.829 368.957H77.8778C77.4314 368.961 76.9887 368.877 76.5755 368.709C76.1624 368.541 75.787 368.293 75.4713 367.979C75.1556 367.665 74.906 367.293 74.7369 366.882C74.5678 366.472 74.4827 366.032 74.4864 365.588V310.021C74.4836 309.577 74.5694 309.138 74.7388 308.728C74.9083 308.318 75.1579 307.945 75.4734 307.632C75.7889 307.319 76.1639 307.071 76.5767 306.902C76.9894 306.734 77.4317 306.649 77.8778 306.652H133.815C134.261 306.649 134.703 306.734 135.116 306.902C135.529 307.071 135.904 307.319 136.219 307.632C136.535 307.945 136.784 308.318 136.954 308.728C137.123 309.138 137.209 309.577 137.206 310.021V365.588C137.188 366.474 136.827 367.318 136.198 367.946C135.569 368.573 134.72 368.936 133.829 368.957Z" fill="#A04833"/>
<path d="M135.254 370.543H76.403C75.4582 370.543 74.5521 370.17 73.884 369.506C73.2159 368.843 72.8406 367.942 72.8406 367.004V308.541C72.8349 308.075 72.9231 307.612 73.1001 307.18C73.2771 306.748 73.5393 306.356 73.8712 306.026C74.2032 305.696 74.5982 305.436 75.033 305.26C75.4678 305.084 75.9336 304.997 76.403 305.002H135.254C136.199 305.002 137.105 305.375 137.773 306.039C138.441 306.703 138.816 307.603 138.816 308.541V367.004C138.816 367.942 138.441 368.843 137.773 369.506C137.105 370.17 136.199 370.543 135.254 370.543ZM76.403 308.541V367.004H135.282V308.548L76.403 308.541Z" fill="#FFC065"/>
<path d="M92.0776 351.503C92.7995 349.973 93.6083 348.484 94.5001 347.044C95.7113 345.983 96.78 344.78 97.9912 343.647L104.902 336.782L104.475 337.772V329.279C104.475 327.864 104.404 326.448 104.546 325.032C104.974 323.617 105.401 322.201 105.9 320.786C106.448 322.169 106.9 323.588 107.253 325.032C107.325 326.448 107.253 327.864 107.325 329.279V338.409L106.897 338.834L99.9862 345.7C98.8462 346.832 97.635 347.965 96.5663 349.168C95.1413 349.946 93.6451 350.796 92.0776 351.503Z" fill="#FFC065"/>
<path d="M689.435 296.191H341.788V484.326H689.435V296.191Z" fill="#CC7829"/>
<path d="M698.469 485.076H333.964V490.795H698.469V485.076Z" fill="#BED5E6"/>
<path d="M571.74 356.925H546.298V334.687C546.298 331.601 547.495 331.983 549.639 329.732L553.031 326.193H565.008L568.392 329.732C570.529 331.962 571.74 331.58 571.74 334.687V356.925Z" fill="#E3EAF3"/>
<path d="M566.525 320.071H551.513C549.805 320.071 548.421 321.446 548.421 323.143V323.164C548.421 324.86 549.805 326.236 551.513 326.236H566.525C568.233 326.236 569.617 324.86 569.617 323.164V323.143C569.617 321.446 568.233 320.071 566.525 320.071Z" fill="#E3EAF3"/>
<path d="M571.733 339.627H546.298V347.597H571.733V339.627Z" fill="#EF3E3B"/>
<path d="M600.354 356.925H574.918V334.687C574.918 331.601 576.115 331.983 578.26 329.732L581.644 326.193H593.628L597.012 329.732C599.15 331.962 600.354 331.58 600.354 334.687V356.925Z" fill="#E3EAF3"/>
<path d="M595.139 320.071H580.127C578.419 320.071 577.034 321.446 577.034 323.143V323.164C577.034 324.86 578.419 326.236 580.127 326.236H595.139C596.846 326.236 598.231 324.86 598.231 323.164V323.143C598.231 321.446 596.846 320.071 595.139 320.071Z" fill="#E3EAF3"/>
<path d="M600.354 339.627H574.918V347.597H600.354V339.627Z" fill="#EF3E3B"/>
<path d="M649.543 421.801H624.108V399.562C624.108 396.483 625.305 396.858 627.449 394.608L630.834 391.069H642.811L646.202 394.608C648.339 396.83 649.543 396.455 649.543 399.562V421.801Z" fill="#E3EAF3"/>
<path d="M644.328 384.953H629.316C627.608 384.953 626.224 386.329 626.224 388.025V388.046C626.224 389.743 627.608 391.118 629.316 391.118H644.328C646.035 391.118 647.42 389.743 647.42 388.046V388.025C647.42 386.329 646.035 384.953 644.328 384.953Z" fill="#E3EAF3"/>
<path d="M649.543 404.502H624.108V412.472H649.543V404.502Z" fill="#EF3E3B"/>
<path d="M678.164 421.801H652.721V399.562C652.721 396.483 653.918 396.858 656.062 394.608L659.454 391.069H671.431L674.815 394.608C676.952 396.83 678.164 396.455 678.164 399.562V421.801Z" fill="#54A4CC"/>
<path d="M672.948 384.953H657.936C656.229 384.953 654.844 386.329 654.844 388.025V388.046C654.844 389.743 656.229 391.118 657.936 391.118H672.948C674.656 391.118 676.041 389.743 676.041 388.046V388.025C676.041 386.329 674.656 384.953 672.948 384.953Z" fill="#E3EAF3"/>
<path d="M434.531 421.801H409.096V399.562C409.096 396.483 410.293 396.858 412.437 394.608L415.829 391.069H427.805L431.19 394.608C433.327 396.83 434.531 396.455 434.531 399.562V421.801Z" fill="#E3EAF3"/>
<path d="M429.323 384.953H414.311C412.603 384.953 411.219 386.329 411.219 388.025V388.046C411.219 389.743 412.603 391.118 414.311 391.118H429.323C431.031 391.118 432.415 389.743 432.415 388.046V388.025C432.415 386.329 431.031 384.953 429.323 384.953Z" fill="#E3EAF3"/>
<path d="M434.531 404.502H409.096V412.472H434.531V404.502Z" fill="#54A4CC"/>
<path d="M463.151 421.801H437.716V399.562C437.716 396.483 438.913 396.858 441.057 394.608L444.442 391.069H456.418L459.81 394.608C461.947 396.83 463.151 396.455 463.151 399.562V421.801Z" fill="#E3EAF3"/>
<path d="M457.936 384.953H442.924C441.216 384.953 439.832 386.329 439.832 388.025V388.046C439.832 389.743 441.216 391.118 442.924 391.118H457.936C459.644 391.118 461.028 389.743 461.028 388.046V388.025C461.028 386.329 459.644 384.953 457.936 384.953Z" fill="#E3EAF3"/>
<path d="M463.151 404.502H437.716V412.472H463.151V404.502Z" fill="#EF3E3B"/>
<path d="M388.598 485.175H363.162V462.936C363.162 459.858 364.359 460.233 366.504 457.982L369.888 454.443H381.865L385.256 457.982C387.394 460.204 388.598 459.829 388.598 462.936V485.175Z" fill="#E3EAF3"/>
<path d="M383.382 448.321H368.37C366.662 448.321 365.278 449.696 365.278 451.393V451.414C365.278 453.11 366.662 454.486 368.37 454.486H383.382C385.09 454.486 386.474 453.11 386.474 451.414V451.393C386.474 449.696 385.09 448.321 383.382 448.321Z" fill="#E3EAF3"/>
<path d="M388.598 467.877H363.162V475.846H388.598V467.877Z" fill="#54A4CC"/>
<path d="M417.21 485.175H391.775V462.936C391.775 459.858 392.972 460.233 395.116 457.982L398.508 454.443H410.485L413.869 457.982C416.006 460.204 417.21 459.829 417.21 462.936V485.175Z" fill="#E3EAF3"/>
<path d="M412.003 448.321H396.991C395.283 448.321 393.898 449.696 393.898 451.393V451.414C393.898 453.11 395.283 454.486 396.991 454.486H412.003C413.71 454.486 415.095 453.11 415.095 451.414V451.393C415.095 449.696 413.71 448.321 412.003 448.321Z" fill="#E3EAF3"/>
<path d="M417.21 467.877H391.775V475.846H417.21V467.877Z" fill="#EF3E3B"/>
<path d="M681.191 356.925H644.784V325.125C644.784 320.715 646.501 321.26 649.572 318.047L654.416 313.015H671.566L676.411 318.047C679.481 321.239 681.191 320.694 681.191 325.125V356.925Z" fill="#54A4CC"/>
<path d="M673.725 304.174H652.251C649.803 304.174 647.819 306.145 647.819 308.577V308.598C647.819 311.029 649.803 313 652.251 313H673.725C676.172 313 678.156 311.029 678.156 308.598V308.577C678.156 306.145 676.172 304.174 673.725 304.174Z" fill="#E3EAF3"/>
<path d="M681.191 332.167H644.784V343.576H681.191V332.167Z" fill="#EF3E3B"/>
<path d="M396.535 421.8H360.127V389.95C360.127 385.54 361.837 386.085 364.908 382.872L369.76 377.84H386.902L391.747 382.872C394.818 386.064 396.535 385.519 396.535 389.95V421.8Z" fill="#E3EAF3"/>
<path d="M389.068 369.057H367.594C365.146 369.057 363.162 371.028 363.162 373.459V373.48C363.162 375.912 365.146 377.883 367.594 377.883H389.068C391.515 377.883 393.5 375.912 393.5 373.48V373.459C393.5 371.028 391.515 369.057 389.068 369.057Z" fill="#54A4CC"/>
<path d="M396.535 397.042H360.127V408.452H396.535V397.042Z" fill="#EF3E3B"/>
<path d="M615.422 421.8H579.007V389.95C579.007 385.54 580.724 386.085 583.795 382.872L588.64 377.84H605.825L610.67 382.872C613.741 386.064 615.458 385.519 615.458 389.95L615.422 421.8Z" fill="#E3EAF3"/>
<path d="M607.948 369.057H586.474C584.027 369.057 582.043 371.028 582.043 373.459V373.48C582.043 375.912 584.027 377.883 586.474 377.883H607.948C610.396 377.883 612.38 375.912 612.38 373.48V373.459C612.38 371.028 610.396 369.057 607.948 369.057Z" fill="#54A4CC"/>
<path d="M615.415 397.042H579.007V408.452H615.415V397.042Z" fill="#EF3E3B"/>
<path d="M542.835 483.512H506.428V451.661C506.428 447.245 508.138 447.79 511.208 444.584L516.06 439.551H533.203L538.055 444.584C541.126 447.769 542.835 447.224 542.835 451.661V483.512Z" fill="#E3EAF3"/>
<path d="M535.368 430.768H513.894C511.446 430.768 509.462 432.739 509.462 435.17V435.192C509.462 437.623 511.446 439.594 513.894 439.594H535.368C537.816 439.594 539.8 437.623 539.8 435.192V435.17C539.8 432.739 537.816 430.768 535.368 430.768Z" fill="#E3EAF3"/>
<path d="M542.835 458.753H506.428V470.163H542.835V458.753Z" fill="#EF3E3B"/>
<path d="M655.15 485.175H618.743V453.325C618.743 448.915 620.46 449.453 623.523 446.247L628.375 441.215H645.518L650.37 446.247C653.44 449.432 655.15 448.894 655.15 453.325V485.175Z" fill="#E3EAF3"/>
<path d="M647.563 432.431H626.088C623.641 432.431 621.657 434.402 621.657 436.834V436.855C621.657 439.286 623.641 441.257 626.088 441.257H647.563C650.01 441.257 651.994 439.286 651.994 436.855V436.834C651.994 434.402 650.01 432.431 647.563 432.431Z" fill="#EF3E3B"/>
<path d="M655.15 457.508H618.743V468.917H655.15V457.508Z" fill="#54A4CC"/>
<path d="M636.946 356.925H613.121V306.68H621.906L625.034 331.806L628.268 306.68H636.946V356.925Z" fill="#E3EAF3"/>
<path d="M619.284 337.772C620.846 337.772 622.113 336.514 622.113 334.962C622.113 333.411 620.846 332.153 619.284 332.153C617.722 332.153 616.456 333.411 616.456 334.962C616.456 336.514 617.722 337.772 619.284 337.772Z" fill="#ABBCCA"/>
<path d="M619.284 346.386C620.846 346.386 622.113 345.128 622.113 343.576C622.113 342.024 620.846 340.766 619.284 340.766C617.722 340.766 616.456 342.024 616.456 343.576C616.456 345.128 617.722 346.386 619.284 346.386Z" fill="#ABBCCA"/>
<path d="M619.284 355.205C620.846 355.205 622.113 353.947 622.113 352.395C622.113 350.843 620.846 349.585 619.284 349.585C617.722 349.585 616.456 350.843 616.456 352.395C616.456 353.947 617.722 355.205 619.284 355.205Z" fill="#ABBCCA"/>
<path d="M630.99 337.772C632.553 337.772 633.819 336.514 633.819 334.962C633.819 333.411 632.553 332.153 630.99 332.153C629.428 332.153 628.162 333.411 628.162 334.962C628.162 336.514 629.428 337.772 630.99 337.772Z" fill="#ABBCCA"/>
<path d="M630.99 346.386C632.553 346.386 633.819 345.128 633.819 343.576C633.819 342.024 632.553 340.766 630.99 340.766C629.428 340.766 628.162 342.024 628.162 343.576C628.162 345.128 629.428 346.386 630.99 346.386Z" fill="#ABBCCA"/>
<path d="M630.99 355.205C632.553 355.205 633.819 353.947 633.819 352.395C633.819 350.843 632.553 349.585 630.99 349.585C629.428 349.585 628.162 350.843 628.162 352.395C628.162 353.947 629.428 355.205 630.99 355.205Z" fill="#ABBCCA"/>
<path d="M500.877 421.8H477.052V371.562H485.837L488.964 396.681L492.192 371.562H500.877V421.8Z" fill="#E3EAF3"/>
<path d="M483.207 402.655C484.77 402.655 486.036 401.397 486.036 399.845C486.036 398.293 484.77 397.035 483.207 397.035C481.645 397.035 480.379 398.293 480.379 399.845C480.379 401.397 481.645 402.655 483.207 402.655Z" fill="#ABBCCA"/>
<path d="M483.207 411.262C484.77 411.262 486.036 410.004 486.036 408.452C486.036 406.9 484.77 405.642 483.207 405.642C481.645 405.642 480.379 406.9 480.379 408.452C480.379 410.004 481.645 411.262 483.207 411.262Z" fill="#ABBCCA"/>
<path d="M483.207 420.088C484.77 420.088 486.036 418.83 486.036 417.278C486.036 415.726 484.77 414.468 483.207 414.468C481.645 414.468 480.379 415.726 480.379 417.278C480.379 418.83 481.645 420.088 483.207 420.088Z" fill="#ABBCCA"/>
<path d="M494.921 402.655C496.483 402.655 497.749 401.397 497.749 399.845C497.749 398.293 496.483 397.035 494.921 397.035C493.359 397.035 492.092 398.293 492.092 399.845C492.092 401.397 493.359 402.655 494.921 402.655Z" fill="#ABBCCA"/>
<path d="M494.921 411.262C496.483 411.262 497.749 410.004 497.749 408.452C497.749 406.9 496.483 405.642 494.921 405.642C493.359 405.642 492.092 406.9 492.092 408.452C492.092 410.004 493.359 411.262 494.921 411.262Z" fill="#ABBCCA"/>
<path d="M494.921 420.088C496.483 420.088 497.749 418.83 497.749 417.278C497.749 415.726 496.483 414.468 494.921 414.468C493.359 414.468 492.092 415.726 492.092 417.278C492.092 418.83 493.359 420.088 494.921 420.088Z" fill="#ABBCCA"/>
<path d="M581.53 485.175H557.705V434.937H566.49L569.617 460.056L572.845 434.937H581.53V485.175Z" fill="#E3EAF3"/>
<path d="M563.86 466.029C565.422 466.029 566.689 464.771 566.689 463.219C566.689 461.667 565.422 460.409 563.86 460.409C562.298 460.409 561.032 461.667 561.032 463.219C561.032 464.771 562.298 466.029 563.86 466.029Z" fill="#ABBCCA"/>
<path d="M563.86 474.636C565.422 474.636 566.689 473.378 566.689 471.826C566.689 470.274 565.422 469.016 563.86 469.016C562.298 469.016 561.032 470.274 561.032 471.826C561.032 473.378 562.298 474.636 563.86 474.636Z" fill="#ABBCCA"/>
<path d="M563.86 483.462C565.422 483.462 566.689 482.204 566.689 480.652C566.689 479.1 565.422 477.842 563.86 477.842C562.298 477.842 561.032 479.1 561.032 480.652C561.032 482.204 562.298 483.462 563.86 483.462Z" fill="#ABBCCA"/>
<path d="M575.574 466.029C577.136 466.029 578.402 464.771 578.402 463.219C578.402 461.667 577.136 460.409 575.574 460.409C574.011 460.409 572.745 461.667 572.745 463.219C572.745 464.771 574.011 466.029 575.574 466.029Z" fill="#ABBCCA"/>
<path d="M575.574 474.636C577.136 474.636 578.402 473.378 578.402 471.826C578.402 470.274 577.136 469.016 575.574 469.016C574.011 469.016 572.745 470.274 572.745 471.826C572.745 473.378 574.011 474.636 575.574 474.636Z" fill="#ABBCCA"/>
<path d="M575.574 483.462C577.136 483.462 578.402 482.204 578.402 480.652C578.402 479.1 577.136 477.842 575.574 477.842C574.011 477.842 572.745 479.1 572.745 480.652C572.745 482.204 574.011 483.462 575.574 483.462Z" fill="#ABBCCA"/>
<path d="M609.131 439.148H585.306V485.175H609.131V439.148Z" fill="#BED5E6"/>
<path d="M591.462 466.029C593.024 466.029 594.291 464.771 594.291 463.219C594.291 461.667 593.024 460.409 591.462 460.409C589.9 460.409 588.634 461.667 588.634 463.219C588.634 464.771 589.9 466.029 591.462 466.029Z" fill="#EF3E3B"/>
<path d="M591.462 474.636C593.024 474.636 594.291 473.378 594.291 471.826C594.291 470.274 593.024 469.016 591.462 469.016C589.9 469.016 588.634 470.274 588.634 471.826C588.634 473.378 589.9 474.636 591.462 474.636Z" fill="#EF3E3B"/>
<path d="M591.462 483.462C593.024 483.462 594.291 482.204 594.291 480.652C594.291 479.1 593.024 477.842 591.462 477.842C589.9 477.842 588.634 479.1 588.634 480.652C588.634 482.204 589.9 483.462 591.462 483.462Z" fill="#EF3E3B"/>
<path d="M603.168 466.029C604.73 466.029 605.997 464.771 605.997 463.219C605.997 461.667 604.73 460.409 603.168 460.409C601.606 460.409 600.34 461.667 600.34 463.219C600.34 464.771 601.606 466.029 603.168 466.029Z" fill="#EF3E3B"/>
<path d="M603.168 474.636C604.73 474.636 605.997 473.378 605.997 471.826C605.997 470.274 604.73 469.016 603.168 469.016C601.606 469.016 600.34 470.274 600.34 471.826C600.34 473.378 601.606 474.636 603.168 474.636Z" fill="#EF3E3B"/>
<path d="M603.168 483.462C604.73 483.462 605.997 482.204 605.997 480.652C605.997 479.1 604.73 477.842 603.168 477.842C601.606 477.842 600.34 479.1 600.34 480.652C600.34 482.204 601.606 483.462 603.168 483.462Z" fill="#EF3E3B"/>
<path d="M591.362 448.314C592.924 448.314 594.191 447.056 594.191 445.504C594.191 443.952 592.924 442.694 591.362 442.694C589.8 442.694 588.534 443.952 588.534 445.504C588.534 447.056 589.8 448.314 591.362 448.314Z" fill="#EF3E3B"/>
<path d="M591.362 457.14C592.924 457.14 594.191 455.882 594.191 454.33C594.191 452.778 592.924 451.52 591.362 451.52C589.8 451.52 588.534 452.778 588.534 454.33C588.534 455.882 589.8 457.14 591.362 457.14Z" fill="#EF3E3B"/>
<path d="M603.068 448.314C604.63 448.314 605.897 447.056 605.897 445.504C605.897 443.952 604.63 442.694 603.068 442.694C601.506 442.694 600.24 443.952 600.24 445.504C600.24 447.056 601.506 448.314 603.068 448.314Z" fill="#EF3E3B"/>
<path d="M603.068 457.14C604.63 457.14 605.897 455.882 605.897 454.33C605.897 452.778 604.63 451.52 603.068 451.52C601.506 451.52 600.24 452.778 600.24 454.33C600.24 455.882 601.506 457.14 603.068 457.14Z" fill="#EF3E3B"/>
<path d="M437.944 356.925H414.125V306.68H422.903L426.031 331.806L429.266 306.68H437.944V356.925Z" fill="#E3EAF3"/>
<path d="M420.282 337.772C421.844 337.772 423.11 336.514 423.11 334.962C423.11 333.411 421.844 332.153 420.282 332.153C418.72 332.153 417.453 333.411 417.453 334.962C417.453 336.514 418.72 337.772 420.282 337.772Z" fill="#54A4CC"/>
<path d="M420.282 346.386C421.844 346.386 423.11 345.128 423.11 343.576C423.11 342.024 421.844 340.766 420.282 340.766C418.72 340.766 417.453 342.024 417.453 343.576C417.453 345.128 418.72 346.386 420.282 346.386Z" fill="#54A4CC"/>
<path d="M420.282 355.205C421.844 355.205 423.11 353.947 423.11 352.395C423.11 350.843 421.844 349.585 420.282 349.585C418.72 349.585 417.453 350.843 417.453 352.395C417.453 353.947 418.72 355.205 420.282 355.205Z" fill="#54A4CC"/>
<path d="M431.987 337.772C433.549 337.772 434.816 336.514 434.816 334.962C434.816 333.411 433.549 332.153 431.987 332.153C430.425 332.153 429.159 333.411 429.159 334.962C429.159 336.514 430.425 337.772 431.987 337.772Z" fill="#54A4CC"/>
<path d="M431.987 346.386C433.549 346.386 434.816 345.128 434.816 343.576C434.816 342.024 433.549 340.766 431.987 340.766C430.425 340.766 429.159 342.024 429.159 343.576C429.159 345.128 430.425 346.386 431.987 346.386Z" fill="#54A4CC"/>
<path d="M431.987 355.205C433.549 355.205 434.816 353.947 434.816 352.395C434.816 350.843 433.549 349.585 431.987 349.585C430.425 349.585 429.159 350.843 429.159 352.395C429.159 353.947 430.425 355.205 431.987 355.205Z" fill="#54A4CC"/>
<path d="M465.546 310.891H441.72V356.918H465.546V310.891Z" fill="#E3EAF3"/>
<path d="M447.875 337.772C449.438 337.772 450.704 336.514 450.704 334.962C450.704 333.411 449.438 332.153 447.875 332.153C446.313 332.153 445.047 333.411 445.047 334.962C445.047 336.514 446.313 337.772 447.875 337.772Z" fill="#ABBCCA"/>
<path d="M447.875 346.386C449.438 346.386 450.704 345.128 450.704 343.576C450.704 342.024 449.438 340.766 447.875 340.766C446.313 340.766 445.047 342.024 445.047 343.576C445.047 345.128 446.313 346.386 447.875 346.386Z" fill="#ABBCCA"/>
<path d="M447.875 355.205C449.438 355.205 450.704 353.947 450.704 352.395C450.704 350.843 449.438 349.585 447.875 349.585C446.313 349.585 445.047 350.843 445.047 352.395C445.047 353.947 446.313 355.205 447.875 355.205Z" fill="#ABBCCA"/>
<path d="M459.589 337.772C461.151 337.772 462.417 336.514 462.417 334.962C462.417 333.411 461.151 332.153 459.589 332.153C458.027 332.153 456.76 333.411 456.76 334.962C456.76 336.514 458.027 337.772 459.589 337.772Z" fill="#ABBCCA"/>
<path d="M459.589 346.386C461.151 346.386 462.417 345.128 462.417 343.576C462.417 342.024 461.151 340.766 459.589 340.766C458.027 340.766 456.76 342.024 456.76 343.576C456.76 345.128 458.027 346.386 459.589 346.386Z" fill="#ABBCCA"/>
<path d="M459.589 355.205C461.151 355.205 462.417 353.947 462.417 352.395C462.417 350.843 461.151 349.585 459.589 349.585C458.027 349.585 456.76 350.843 456.76 352.395C456.76 353.947 458.027 355.205 459.589 355.205Z" fill="#ABBCCA"/>
<path d="M447.776 320.064C449.338 320.064 450.605 318.806 450.605 317.254C450.605 315.702 449.338 314.444 447.776 314.444C446.214 314.444 444.948 315.702 444.948 317.254C444.948 318.806 446.214 320.064 447.776 320.064Z" fill="#ABBCCA"/>
<path d="M447.776 328.883C449.338 328.883 450.605 327.625 450.605 326.073C450.605 324.521 449.338 323.263 447.776 323.263C446.214 323.263 444.948 324.521 444.948 326.073C444.948 327.625 446.214 328.883 447.776 328.883Z" fill="#ABBCCA"/>
<path d="M459.489 320.064C461.051 320.064 462.318 318.806 462.318 317.254C462.318 315.702 461.051 314.444 459.489 314.444C457.927 314.444 456.661 315.702 456.661 317.254C456.661 318.806 457.927 320.064 459.489 320.064Z" fill="#ABBCCA"/>
<path d="M459.489 328.883C461.051 328.883 462.318 327.625 462.318 326.073C462.318 324.521 461.051 323.263 459.489 323.263C457.927 323.263 456.661 324.521 456.661 326.073C456.661 327.625 457.927 328.883 459.489 328.883Z" fill="#ABBCCA"/>
<path d="M562.25 421.8L540.748 419.344L519.245 421.8V388.91L540.748 391.366L562.25 388.91V421.8Z" fill="#54A4CC"/>
<path d="M519.245 388.91H511.173V421.8H519.245V388.91Z" fill="#EF3E3B"/>
<path d="M570.323 388.91H562.25V421.8H570.323V388.91Z" fill="#EF3E3B"/>
<path d="M552.254 398.691H529.241V411.969H552.254V398.691Z" fill="#E3EAF3"/>
<path d="M527.93 356.925L506.427 354.469L484.925 356.925V324.035L506.427 326.491L527.93 324.035V356.925Z" fill="#EF3E3B"/>
<path d="M484.925 324.035H476.853V356.925H484.925V324.035Z" fill="#54A4CC"/>
<path d="M536.003 324.035H527.93V356.925H536.003V324.035Z" fill="#54A4CC"/>
<path d="M517.934 333.809H494.921V347.087H517.934V333.809Z" fill="#E3EAF3"/>
<path d="M399.833 356.925L378.331 354.469L356.828 356.925V324.035L378.331 326.491L399.833 324.035V356.925Z" fill="#E3EAF3"/>
<path d="M356.828 324.035H348.755V356.925H356.828V324.035Z" fill="#EF3E3B"/>
<path d="M407.906 324.035H399.833V356.925H407.906V324.035Z" fill="#EF3E3B"/>
<path d="M389.837 333.809H366.824V347.087H389.837V333.809Z" fill="#54A4CC"/>
<path d="M484.654 485.175L463.152 482.719L441.649 485.175V452.284L463.152 454.74L484.654 452.284V485.175Z" fill="#EF3E3B"/>
<path d="M441.649 452.284H433.576V485.175H441.649V452.284Z" fill="#E3EAF3"/>
<path d="M492.727 452.284H484.654V485.175H492.727V452.284Z" fill="#E3EAF3"/>
<path d="M474.658 462.059H451.645V475.337H474.658V462.059Z" fill="#54A4CC"/>
<path d="M709.427 287.131H323.014V298.562H709.427V287.131Z" fill="#A04833"/>
<path d="M698.469 421.001H333.964V426.72H698.469V421.001Z" fill="#E3EAF3"/>
<path d="M698.469 356.925H333.964V362.644H698.469V356.925Z" fill="#E3EAF3"/>
<path d="M332.098 292.843V493.704H699.16V292.843H332.098ZM689.435 484.326H341.787V296.191H689.435V484.326Z" fill="#A04833"/>
<path d="M472.236 433.252C472.236 433.252 470.455 454.691 461.905 463.991C453.355 473.291 461.748 432.537 461.748 432.537L472.236 433.252Z" fill="black"/>
<path d="M444.805 474.41C445.254 472.838 443.38 469.023 442.24 466.822C449.978 467.997 459.183 462.576 463.978 452.978C464.267 453.133 464.576 453.245 464.897 453.311C464.897 453.311 465.652 473.277 470.006 473.525C475.1 477.864 491.743 492.557 488.352 499.38C485.502 505.092 470.141 502.147 447.235 497.745C445.006 497.404 442.927 496.42 441.257 494.914C436.448 490.363 437.766 482.174 438.443 480.327C439.312 477.92 444.164 476.667 444.805 474.41Z" fill="#EA9D7D"/>
<path d="M461.513 476.681C464.555 470.141 458.171 468.754 458.171 468.754L458.221 468.662C454.003 471.493 449.286 472.718 445.061 471.904L444.47 471.769C443.868 470.045 443.122 468.374 442.24 466.772C449.978 467.947 458.741 462.016 463.536 452.411C463.655 452.667 463.848 452.882 464.09 453.028C464.333 453.175 464.614 453.246 464.897 453.232C464.897 453.232 465.039 456.948 465.545 461.188C466.208 466.801 467.519 473.355 470.005 473.496C476.909 479.314 493.581 494.135 490.233 500.71C486.884 507.286 464.006 504.957 447.235 497.716C444.677 496.612 442.589 495.536 441.064 494.701C451.545 495.869 458.784 482.549 461.513 476.681Z" fill="#D18165"/>
<path d="M454.21 415.31C463.038 417.015 468.46 428.191 467.213 441.165H467.284C469.692 441.632 471.117 444.704 470.462 448.08C469.806 451.456 467.313 453.742 464.897 453.303C464.623 453.291 464.355 453.221 464.109 453.099C463.864 452.977 463.647 452.806 463.472 452.596C458.57 462.42 449.558 468.245 441.72 466.751C431.981 464.861 428.539 452.935 431.404 438.369C434.268 423.803 444.478 413.42 454.21 415.31Z" fill="#EA9D7D"/>
<path d="M467.363 444.152C467.958 444.553 468.407 445.134 468.645 445.808C468.91 446.504 468.967 447.261 468.809 447.988C468.659 448.71 468.311 449.376 467.804 449.913C467.56 450.17 467.285 450.396 466.985 450.586C466.682 450.766 466.356 450.907 466.016 451.003C466.153 450.697 466.308 450.4 466.479 450.111C466.607 449.814 466.778 449.559 466.878 449.283C467.122 448.778 467.304 448.246 467.42 447.698C467.62 446.523 467.601 445.32 467.363 444.152Z" fill="#D18165"/>
<path d="M435.793 457.154C442.917 457.479 443.715 452.044 443.715 452.044C440.858 452.941 437.827 453.147 434.874 452.645C434.874 452.645 436.968 455.009 435.793 457.154Z" fill="#BE3E5F"/>
<path d="M437.787 437.308C438.055 438.771 438.083 440.267 437.873 441.738C437.775 442.518 437.554 443.278 437.217 443.989C437.018 444.393 436.825 444.64 436.64 444.959C436.455 445.277 436.277 445.553 436.12 445.851C435.803 446.359 435.608 446.933 435.55 447.528C435.543 447.633 435.558 447.737 435.593 447.836C435.629 447.935 435.685 448.025 435.757 448.101C435.947 448.295 436.175 448.449 436.426 448.554C437.779 448.959 439.176 449.197 440.587 449.262C439.134 449.754 437.578 449.864 436.07 449.581C435.626 449.474 435.215 449.26 434.873 448.958C434.49 448.602 434.251 448.118 434.203 447.599C434.187 446.741 434.417 445.897 434.866 445.164C435.051 444.824 435.251 444.499 435.457 444.187C435.664 443.876 435.899 443.557 436.042 443.324C436.355 442.739 436.594 442.119 436.754 441.477C437.189 440.16 437.467 438.745 437.787 437.308Z" fill="#D18165"/>
<path d="M442.24 434.399C443.659 434.629 445.061 434.953 446.437 435.368C447.099 435.58 447.744 435.84 448.368 436.147C449.009 436.437 449.586 436.854 450.263 437.223C449.939 436.523 449.45 435.911 448.838 435.439C448.228 434.95 447.533 434.578 446.786 434.342C446.05 434.103 445.28 433.981 444.506 433.981C443.73 433.968 442.96 434.11 442.24 434.399Z" fill="black"/>
<path d="M434.952 433.026C434.325 432.771 433.661 432.616 432.985 432.565C432.857 432.919 432.743 433.273 432.622 433.627C433.318 433.645 434.011 433.716 434.695 433.839C435.408 433.939 436.063 434.165 436.833 434.342C436.318 433.764 435.674 433.313 434.952 433.026Z" fill="black"/>
<path d="M433.284 442.659C433.568 442.713 433.861 442.653 434.1 442.492C434.339 442.332 434.504 442.084 434.56 441.802L435.172 438.688C435.207 438.546 435.212 438.399 435.187 438.255C435.162 438.111 435.109 437.974 435.029 437.851C434.95 437.728 434.847 437.622 434.725 437.54C434.604 437.458 434.467 437.402 434.323 437.373C434.178 437.345 434.03 437.346 433.886 437.377C433.743 437.407 433.607 437.466 433.486 437.549C433.366 437.633 433.264 437.74 433.187 437.864C433.109 437.988 433.057 438.126 433.035 438.27L432.429 441.385C432.373 441.666 432.431 441.959 432.591 442.197C432.752 442.436 433.001 442.602 433.284 442.659Z" fill="black"/>
<path d="M444.264 443.324C444.548 443.378 444.842 443.318 445.082 443.158C445.323 442.998 445.489 442.749 445.546 442.467L446.159 439.353C446.195 439.21 446.201 439.062 446.177 438.917C446.153 438.771 446.1 438.633 446.021 438.509C445.941 438.384 445.837 438.278 445.714 438.195C445.592 438.112 445.454 438.055 445.308 438.027C445.163 437.999 445.013 438.001 444.869 438.033C444.724 438.064 444.587 438.124 444.467 438.21C444.346 438.296 444.245 438.405 444.168 438.531C444.092 438.657 444.042 438.797 444.021 438.943L443.38 442.05C443.353 442.191 443.355 442.336 443.385 442.477C443.415 442.618 443.473 442.751 443.555 442.869C443.637 442.988 443.742 443.089 443.864 443.167C443.985 443.245 444.121 443.298 444.264 443.324Z" fill="black"/>
<path d="M472.243 430.534C472.243 430.534 468.224 406.024 455.677 414.566C455.677 414.566 443.437 410.192 437.602 419.266C431.767 428.34 428.995 426.018 428.995 426.018C428.995 426.018 439.105 433.415 445.952 429.685L454.559 432.218C455.781 432.577 456.858 433.309 457.638 434.31C458.418 435.311 458.862 436.531 458.905 437.796L459.254 447.832C459.495 448.327 459.875 448.742 460.349 449.026C460.822 449.31 461.369 449.451 461.922 449.432C462.475 449.412 463.011 449.233 463.463 448.916C463.915 448.6 464.265 448.159 464.469 447.648C464.997 446.417 465.545 445.051 466.051 443.656C467.825 438.773 473.447 435.085 472.243 430.534Z" fill="black"/>
<path d="M368.691 551.352L361.338 551.65C361.338 551.65 359.735 550.383 357.562 548.741C353.465 545.634 347.324 541.153 346.063 541.231C344.132 541.344 340.776 542.739 349.126 549.13L349.062 549.187C348.784 549.392 347.495 550.234 344.196 550.432C340.398 550.666 327.609 551.529 325.529 552.308C324.403 552.726 321.874 556.095 340.833 555.429C340.983 555.42 341.133 555.443 341.273 555.498C341.413 555.553 341.539 555.638 341.642 555.747C341.744 555.856 341.822 555.986 341.868 556.128C341.914 556.27 341.928 556.421 341.909 556.569C341.845 556.916 341.588 557.227 340.904 557.277C339.187 557.383 324.361 557.63 324.617 560.292C324.802 562.231 328.685 561.757 341.717 561.184C341.717 561.184 343.783 561.714 342.137 562.769C341.567 563.13 326.876 564.496 326.156 565.65C325.436 566.803 323.541 568.7 345.585 566.308C345.585 566.308 345.97 566.527 344.054 567.639C342.016 568.82 335.988 570.413 334.449 572.642C332.91 574.872 337.378 573.103 348.699 569.323L364.573 567.327C375.068 568.792 414.34 572.119 424.093 562.054C433.235 552.626 438.151 518.88 438.151 518.88L415.8 518.172L406.438 543.326C406.131 544.151 405.605 544.878 404.917 545.431C404.229 545.984 403.403 546.343 402.527 546.469L367.387 551.508" fill="#EA9D7D"/>
<path d="M368.299 551.352V567.058" stroke="#2F170B" stroke-width="6" stroke-linecap="round" stroke-linejoin="round"/>
<path d="M411.903 519.764L420.453 493.187C422.108 487.881 425.336 483.194 429.715 479.739C430.833 478.856 432.042 478.092 433.32 477.46C433.431 477.406 433.555 477.381 433.678 477.389C433.801 477.396 433.921 477.436 434.024 477.503C434.128 477.57 434.212 477.662 434.268 477.772C434.325 477.881 434.352 478.003 434.346 478.125L432.936 519.764H411.903Z" fill="#EF3E3B"/>
<path d="M411.903 519.764L420.453 493.187C422.108 487.881 425.336 483.194 429.715 479.739C430.833 478.856 432.042 478.092 433.32 477.46C433.431 477.406 433.555 477.381 433.678 477.389C433.801 477.396 433.921 477.436 434.024 477.503C434.128 477.57 434.212 477.662 434.268 477.772C434.325 477.881 434.352 478.003 434.346 478.125L432.936 519.764H411.903Z" fill="#E3EAF3"/>
<path d="M434.004 486.973L432.936 519.764H421.7C421.443 511.802 422.042 503.004 426.687 493.215C429.879 486.548 431.724 486.215 432.501 486.251C433.074 486.3 433.609 486.557 434.004 486.973Z" fill="#ABBCCA"/>
<path d="M536.936 614.84C536.61 613.567 536.435 612.261 536.416 610.947C536.252 599.927 535.19 557.864 528.807 538.754C526.776 532.653 508.102 501.567 508.102 501.567L481.427 507.173L504.939 545.952C505.98 547.671 506.747 549.541 507.211 551.494L521.539 612.115C521.736 612.948 521.743 613.813 521.559 614.648C521.375 615.483 521.006 616.267 520.478 616.942C517.464 620.786 511.493 628.592 511.586 630.022C511.721 631.94 513.146 635.274 519.523 626.929C519.523 626.929 520.613 628.047 520.862 631.82C521.112 635.592 521.668 650.116 522.865 650.357C524.062 650.597 526.776 654.051 525.878 634.318C525.878 634.318 527.645 633.342 527.759 635.026C527.873 636.711 528.857 652.933 530.894 651.192C532.932 649.451 532.319 647.136 531.692 634.205C531.692 634.205 533.025 633.151 533.281 633.773C533.537 634.396 534.998 649.713 536.288 649.628C537.577 649.543 539.366 652.204 536.815 630.334C536.815 630.334 537.527 629.965 538.34 632.16C539.152 634.354 542.258 643.987 543.27 641.361C544.282 638.735 543.719 638.438 539.843 627.248L536.957 614.812L536.936 614.84Z" fill="#EA9D7D"/>
<path d="M481.427 507.158L487.718 505.835C492.42 511.766 498.263 516.069 505.872 527.139C511.807 535.767 515.647 544.543 517.35 548.252C522.024 558.416 521.076 563.604 524.19 588.68C526.064 603.742 526.997 611.273 527.98 615.208C527.98 615.208 535.019 643.42 531.585 650.406C531.425 650.73 531.179 651.004 530.873 651.199C528.835 652.94 527.852 636.739 527.738 635.033C527.624 633.327 525.857 634.325 525.857 634.325C526.755 654.058 524.047 650.604 522.843 650.363C521.639 650.123 521.098 635.67 520.848 631.855C520.599 628.083 519.509 626.964 519.509 626.964C513.096 635.309 511.672 631.975 511.572 630.057C511.479 628.642 517.45 620.856 520.463 616.977C520.992 616.302 521.361 615.519 521.545 614.683C521.728 613.848 521.722 612.983 521.525 612.15L507.197 551.529C506.733 549.576 505.966 547.707 504.924 545.987L481.427 507.158Z" fill="#D18165"/>
<path d="M413.349 515.277H432.237V518.108H412.438L413.349 515.277Z" fill="#25BEEF"/>
<path d="M421.664 515.277H432.237V518.108H421.664C421.65 517.174 421.65 516.225 421.664 515.277Z" fill="#1A87C4"/>
<path d="M415.437 508.765H431.895V511.596H414.525L415.437 508.765Z" fill="#25BEEF"/>
<path d="M422.127 508.765H431.895V511.596H421.842C421.914 510.662 422.006 509.72 422.127 508.765Z" fill="#1A87C4"/>
<path d="M434.118 568.006H489.342C490.207 568.007 491.062 567.822 491.848 567.464C492.635 567.106 493.334 566.583 493.898 565.932C494.462 565.281 494.878 564.516 495.117 563.69C495.357 562.865 495.414 561.997 495.284 561.148L482.246 475.705L468.823 472.753C464.028 482.853 449.258 483.313 444.542 473.178L434.353 477.028C432.596 477.452 431.042 478.473 429.962 479.914C428.882 481.355 428.344 483.126 428.44 484.92L428.546 488.112C429.387 513.772 430.233 539.429 431.083 565.083C431.069 565.296 431.126 566.329 434.118 568.006Z" fill="#E3EAF3"/>
<path d="M518.269 518.497C518.588 518.285 518.86 518.01 519.069 517.691C519.278 517.371 519.42 517.013 519.487 516.638C519.554 516.262 519.543 515.877 519.456 515.506C519.369 515.135 519.208 514.785 518.982 514.477L498.89 486.76C498.89 486.76 491.765 477.644 482.253 475.705L476.824 503.832L496.061 532.851C496.131 532.958 496.223 533.05 496.33 533.121C496.437 533.192 496.557 533.241 496.683 533.265C496.81 533.289 496.94 533.287 497.065 533.26C497.191 533.232 497.31 533.18 497.415 533.106L518.269 518.497Z" fill="#E3EAF3"/>
<path d="M496.004 532.823L476.931 504.03L476.974 503.754C477.055 503.23 477.271 502.735 477.602 502.319C477.933 501.902 478.367 501.578 478.862 501.378C479.357 501.179 479.895 501.11 480.425 501.179C480.954 501.248 481.457 501.452 481.883 501.772C485.524 504.525 490.176 509.261 494.437 513.599C498.883 518.129 503.656 522.991 505.872 527.139L497.322 533.077C497.113 533.216 496.857 533.267 496.611 533.219C496.364 533.171 496.146 533.029 496.004 532.823Z" fill="#ABBCCA"/>
<path d="M517.032 511.811L493.127 528.576L494.771 530.889L518.676 514.124L517.032 511.811Z" fill="#25BEEF"/>
<path d="M502.352 522.107C502.979 522.864 503.556 523.614 504.091 524.343L494.771 530.883L493.966 529.73L493.183 528.541L502.352 522.107Z" fill="#1A87C4"/>
<path d="M513.131 506.307L488.902 522.07L490.464 524.438L514.693 508.676L513.131 506.307Z" fill="#25BEEF"/>
<path d="M499.346 518.695L490.468 524.471L489.72 523.339L488.908 522.107L497.365 516.608C498.035 517.301 498.704 518.002 499.346 518.695Z" fill="#1A87C4"/>
<path d="M431.062 565.062C435.251 563.597 446.138 563.547 462.631 558.38C478.114 553.539 481.227 549.604 482.638 546.787C485.951 540.169 483.785 531.768 482.894 528.314C481.298 522.114 480.842 519.743 477.636 511.879C476.56 509.239 476.211 502.848 477.636 502.324C479.296 501.715 483.992 508.836 488.794 518.723L495.263 561.126C495.392 561.976 495.335 562.843 495.096 563.669C494.857 564.495 494.441 565.259 493.877 565.91C493.312 566.562 492.613 567.084 491.827 567.442C491.041 567.8 490.186 567.985 489.321 567.985H434.118C433.329 567.983 432.572 567.678 432.006 567.133C431.44 566.587 431.109 565.845 431.083 565.062H431.062Z" fill="#ABBCCA"/>
<path d="M348.898 549.165C348.898 549.165 351.976 560.617 362.5 557.453" stroke="#2F170B" stroke-width="2" stroke-miterlimit="10"/>
<path d="M392.331 792.302C400.083 786.399 419.833 780.269 424.777 769.292C427.449 772.625 442.39 771.684 448.061 771.415C448.061 771.415 449.921 780.581 449.486 786.986C449.052 793.392 448.695 795.246 448.695 795.246L438.172 795.642L438.393 792.967C438.393 792.967 432.273 792.698 428.689 795.749C425.105 798.799 415.323 802.359 405.27 800.951C395.217 799.542 384.572 798.205 392.331 792.302Z" fill="#7C2F13"/>
<path d="M405.291 800.937C415.337 802.352 425.12 798.814 428.704 795.742C432.287 792.67 438.393 792.967 438.393 792.967L438.13 795.721L448.653 795.324C448.653 795.324 448.981 793.505 449.444 787.064C449.594 783.654 449.42 780.236 448.924 776.858C448.511 773.758 448.047 771.458 448.047 771.458C442.348 771.698 427.92 772.555 424.771 769.334C423.253 771.153 420.375 772.873 418.658 774.657C418.116 775.23 417.532 775.797 416.948 776.342C416.363 776.887 415.936 777.212 415.423 777.644C414.76 778.182 414.083 778.727 413.371 779.25C406.246 784.531 397.262 788.593 392.324 792.344C384.58 798.205 395.238 799.521 405.291 800.937Z" fill="#25BEEF"/>
<path d="M448.061 771.444C448.061 771.444 449.921 780.61 449.486 787.015C449.372 788.523 449.273 789.768 449.18 790.802C445.475 790.901 441.143 790.61 442.846 788.523C445.696 785.061 445.746 771.493 445.746 771.493L448.061 771.444Z" fill="#E3EAF3"/>
<path d="M390.742 793.717C391.229 793.2 391.761 792.727 392.331 792.302C395.594 789.818 400.624 787.199 405.719 784.184C409.781 785.319 413.396 787.663 416.078 790.9C418.422 793.831 418.614 798.615 419.249 799.394C416.648 802.105 390.222 798.905 389.716 796.202C389.716 796.202 389.716 796.138 389.716 796.11C389.767 795.218 390.13 794.371 390.742 793.717Z" fill="#E3EAF3"/>
<path d="M405.284 800.937C397.211 799.797 388.761 798.729 389.752 795.275C414.496 803.931 425.504 794.645 427.641 791.736C429.779 788.827 434.289 788.968 434.289 788.968C442.504 789.676 447.113 787.376 449.515 785.521C449.515 786.024 449.515 786.527 449.458 787.008C448.987 793.449 448.667 795.268 448.667 795.268L438.143 795.664L438.393 792.967C438.393 792.967 432.273 792.698 428.689 795.749C425.105 798.799 415.337 802.345 405.284 800.937Z" fill="#7C2F13"/>
<path d="M416.961 776.299C417.41 776.681 417.888 777.049 418.386 777.389C419.03 777.867 419.712 778.293 420.424 778.663C421.195 779.089 422.022 779.403 422.882 779.597C422.656 778.699 422.249 777.856 421.685 777.12C421.165 776.416 420.538 775.798 419.826 775.287C419.466 775.033 419.088 774.808 418.693 774.614C418.13 775.188 417.546 775.754 416.961 776.299Z" fill="#7C2F13"/>
<path d="M413.385 779.208C413.713 779.456 414.04 779.703 414.375 779.916C415.026 780.384 415.707 780.809 416.413 781.19C417.183 781.616 418.011 781.93 418.871 782.124C418.646 781.226 418.239 780.383 417.674 779.647C417.154 778.943 416.526 778.325 415.814 777.814C415.694 777.725 415.568 777.645 415.437 777.573C414.774 778.139 414.097 778.684 413.385 779.208Z" fill="#7C2F13"/>
<path d="M436.618 792.259C444.37 786.357 463.123 781.706 468.067 770.75C470.739 774.084 485.808 770.991 491.479 770.75C491.479 770.75 494.208 780.574 493.745 787.029C493.282 793.484 492.954 795.289 492.954 795.289L482.431 795.685L482.695 792.932C482.695 792.932 476.574 792.663 472.991 795.72C469.407 798.778 459.624 802.324 449.571 800.916C439.518 799.507 428.86 798.127 436.618 792.259Z" fill="#7C2F13"/>
<path d="M449.579 800.859C459.625 802.275 469.407 798.736 472.991 795.664C476.575 792.592 482.695 792.875 482.695 792.875L482.431 795.629L492.954 795.232C492.954 795.232 493.282 793.413 493.745 786.973C493.98 783.759 493.268 779.937 492.862 776.844C492.56 774.771 492.098 772.724 491.48 770.722C485.78 770.955 471.922 771.713 468.075 770.722C466.146 771.671 464.412 772.967 462.959 774.544C462.418 775.124 461.833 775.683 461.249 776.236C460.743 776.674 460.237 777.106 459.724 777.531C459.062 778.076 458.385 778.614 457.672 779.137C450.548 784.417 441.563 788.48 436.626 792.231C428.867 798.134 439.526 799.444 449.579 800.859Z" fill="#25BEEF"/>
<path d="M491.48 770.715C491.48 770.715 494.209 780.539 493.746 786.994C493.632 788.501 493.532 789.747 493.439 790.787C489.734 790.887 485.402 790.589 487.105 788.508C489.955 785.04 490.005 771.472 490.005 771.472C490.903 771.423 490.832 770.743 491.48 770.715Z" fill="#E3EAF3"/>
<path d="M435.03 793.675C435.519 793.16 436.05 792.687 436.619 792.26C439.882 789.775 444.912 787.156 450.006 784.141C454.067 785.273 457.682 787.612 460.366 790.844C462.71 793.774 462.902 798.559 463.536 799.337C460.936 802.041 434.51 798.842 434.004 796.138C434.004 796.138 434.004 796.082 434.004 796.046C434.061 795.162 434.423 794.325 435.03 793.675Z" fill="#E3EAF3"/>
<path d="M449.571 800.859C441.499 799.726 433.049 798.651 434.039 795.197C458.784 803.853 469.792 794.567 471.929 791.658C474.066 788.749 478.576 788.89 478.576 788.89C486.791 789.598 491.437 787.298 493.802 785.436C493.802 785.946 493.802 786.441 493.745 786.923C493.275 793.363 492.954 795.182 492.954 795.182L482.431 795.579L482.695 792.826C482.695 792.826 476.574 792.557 472.991 795.614C469.407 798.672 459.624 802.267 449.571 800.859Z" fill="#7C2F13"/>
<path d="M461.249 776.228C461.698 776.603 462.175 776.936 462.674 777.311C463.316 777.792 463.998 778.218 464.712 778.585C465.483 779.01 466.311 779.327 467.17 779.526C466.944 778.626 466.537 777.781 465.973 777.042C465.451 776.34 464.823 775.722 464.113 775.209C463.754 774.955 463.375 774.73 462.98 774.536C462.417 775.117 461.833 775.676 461.249 776.228Z" fill="#7C2F13"/>
<path d="M457.672 779.13C458 779.378 458.328 779.626 458.663 779.838C459.312 780.308 459.993 780.734 460.7 781.112C461.472 781.537 462.299 781.854 463.158 782.053C462.936 781.152 462.528 780.307 461.962 779.569C461.439 778.867 460.812 778.249 460.102 777.736C459.988 777.651 459.853 777.573 459.724 777.495C459.055 778.104 458.385 778.606 457.672 779.13Z" fill="#7C2F13"/>
<path d="M496.253 613.899C500.102 604.238 501.534 593.795 500.429 583.464C499.698 576.898 497.939 570.486 495.213 564.46C495.213 564.46 445.468 571.793 431.56 564.878C431.56 564.878 420.431 662.933 420.082 671.568C419.733 680.203 424.778 770.042 424.778 770.042C424.778 770.042 438.315 775.449 448.026 771.769C448.026 771.769 455.678 702.895 454.516 685.42L455.151 673.515C455.535 682.15 468.146 771.245 468.146 771.245C468.146 771.245 482.061 775.492 491.458 771.026C491.458 771.026 493.268 701.762 490.632 684.415L490.376 651.149L496.253 613.899Z" fill="#EF3E3B"/>
<path d="M456.255 641.559C454.402 620.325 450.555 599.963 449.301 600.097C448.339 600.196 449.301 610.763 449.65 634.998C449.907 654.759 449.515 668.037 448.938 686.821C447.848 723.484 446.373 729.777 444.784 734.844C440.636 747.843 433.819 759.845 424.763 770.092C429.33 772.13 436.719 774.473 444.976 772.661C446.003 772.438 447.017 772.157 448.011 771.819C448.011 771.819 455.663 702.945 454.502 685.47L456.974 653.365C456.917 650.109 456.697 646.57 456.255 641.559Z" fill="#C82833"/>
<path d="M500.428 583.514C499.698 576.948 497.938 570.536 495.213 564.51C495.213 564.51 445.467 571.843 431.56 564.935C431.018 568.962 469.784 569.762 482.944 593.876C486.214 599.871 485.423 667.485 486.207 686.248C487.753 722.897 486.727 729.274 485.495 734.448C482.297 747.687 476.37 760.122 468.089 770.97V771.033C469.043 771.38 470.119 771.741 471.295 772.045C475.035 772.831 481.476 773.744 487.297 772.442C487.66 772.35 488.01 772.265 488.387 772.159C489.329 771.879 490.254 771.548 491.159 771.168L491.522 770.984C491.522 770.906 491.437 768.86 491.565 765.215C491.928 748.172 492.769 698.719 490.603 684.436L490.347 651.171L491.059 646.429V646.393V646.337L496.175 613.92C500.045 604.275 501.504 593.842 500.428 583.514Z" fill="#C82833"/>
<path d="M460.85 575.063C471.915 575.063 486.5 574.164 497.486 570.257L497.009 568.927C478.762 575.424 450.234 573.456 445.525 573.074L445.703 567.674L444.278 567.631L444.057 574.362L444.72 574.426C444.869 574.44 451.631 575.063 460.85 575.063Z" fill="#7C2F13"/>
<path d="M444.727 574.426L444.855 573.01C440.192 572.56 435.569 571.763 431.026 570.625L430.648 571.991C435.273 573.153 439.979 573.967 444.727 574.426Z" fill="#7C2F13"/>
<path d="M448.703 600.487L449.9 599.715C444.913 592.107 446.836 574.094 446.858 573.91L445.433 573.754C445.354 574.518 443.445 592.461 448.703 600.487Z" fill="#7C2F13"/>
<path d="M492.214 600.784L492.57 599.411C483.714 597.181 472.827 582.65 472.713 582.502L471.566 583.344C472.029 583.96 482.873 598.427 492.214 600.784Z" fill="#7C2F13"/>
<path d="M448.325 572.543C445.575 572.543 445.568 568.296 448.325 568.296C451.082 568.296 451.082 572.543 448.325 572.543Z" fill="#7C2F13"/>
<path d="M477.764 771.465L479.189 771.401C479.189 770.799 476.432 710.928 474.915 681.343C472.891 642.224 481.655 593.43 481.74 592.941L480.315 592.687C480.223 593.175 471.431 642.132 473.461 681.414C475.014 710.999 477.736 770.863 477.764 771.465Z" fill="#7C2F13"/>
<path d="M679.133 687.451C676.361 675.101 672.107 663.486 663.244 664.484C654.381 665.482 647.299 677.549 647.028 691.075C646.779 703.723 656.825 713.016 665.688 712.025C674.551 711.035 682.624 702.994 679.133 687.451Z" fill="#7BCE34"/>
<path d="M670.448 695.067C661.577 696.065 651.539 686.765 651.788 674.11C651.788 673.827 651.788 673.537 651.788 673.246C648.707 678.694 647.057 684.826 646.993 691.075C646.744 703.723 656.79 713.017 665.653 712.026C673.868 711.098 681.392 704.134 679.682 690.75C677.175 693.172 673.924 694.692 670.448 695.067Z" fill="#3C8F2D"/>
<path d="M703.229 723.52C702.516 710.886 695.392 707.241 686.493 708.239C677.594 709.237 670.555 721.297 670.284 734.823C670.027 747.478 674.73 752.376 683.593 751.378C692.456 750.38 704.148 740.591 703.229 723.52Z" fill="#7BCE34"/>
<path d="M697.586 739.997C688.723 740.995 684.049 736.09 684.277 723.442C684.354 718.155 685.53 712.94 687.733 708.126C687.326 708.126 686.913 708.189 686.493 708.239C677.63 709.237 670.555 721.297 670.284 734.823C670.027 747.478 674.73 752.376 683.593 751.378C689.129 750.755 695.776 746.693 699.759 739.579C699.045 739.768 698.319 739.907 697.586 739.997Z" fill="#3C8F2D"/>
<path d="M648.874 709.039C641.749 703.376 633.648 702.732 630.071 706.427C626.495 710.121 629.01 716.831 635.28 724.242C641.143 731.178 648.411 734.943 653.654 731.319C657.872 728.333 657.837 716.208 648.874 709.039Z" fill="#7BCE34"/>
<path d="M650.712 710.723C650.812 714.198 649.8 717.093 648.012 718.353C642.768 722.019 635.493 718.254 629.637 711.318C629.231 710.836 628.839 710.362 628.468 709.902C628.055 713.682 630.606 718.778 635.265 724.256C641.129 731.192 648.396 734.957 653.64 731.334C657.559 728.559 657.794 717.942 650.712 710.723Z" fill="#3C8F2D"/>
<path d="M638.749 710.957C640.688 712.126 642.507 713.482 644.178 715.005C644.371 715.208 644.548 715.426 644.705 715.656C644.876 715.883 645.054 716.102 645.225 716.315C645.575 716.761 645.938 717.178 646.266 717.638C646.914 718.551 647.612 719.429 648.218 720.37C650.74 724.075 652.844 728.043 654.495 732.204C656.181 736.352 657.39 740.676 658.1 745.093L658.378 746.742C658.421 747.018 658.478 747.294 658.506 747.57L658.577 748.405C658.663 749.517 658.777 750.628 658.855 751.746C658.787 752.869 658.651 753.987 658.449 755.094C658.271 756.205 658.079 757.302 657.865 758.392C657.665 757.281 657.473 756.191 657.302 755.101C657.131 754.011 657.024 752.935 656.725 751.866C656.618 750.791 656.554 749.743 656.454 748.639L656.383 747.832C656.383 747.563 656.297 747.301 656.262 747.032L655.991 745.44C655.304 741.173 654.135 736.997 652.507 732.99C650.918 728.969 648.884 725.135 646.444 721.559C645.86 720.646 645.183 719.797 644.556 718.919C643.929 718.042 643.209 717.228 642.525 716.393C641.357 714.545 640.11 712.74 638.749 710.957Z" fill="#2E6821"/>
<path d="M663.871 668.738C664.491 672.432 664.954 676.141 665.41 679.85L665.767 691.018C665.98 698.464 666.144 705.882 666.215 713.363C666.287 720.844 666.273 728.276 666.066 735.736C665.959 739.466 665.795 743.203 665.503 746.94C665.197 748.795 664.855 750.649 664.427 752.489C664.039 754.338 663.444 756.137 662.653 757.854L662.938 756.481L663.102 755.065C663.195 754.145 663.252 753.218 663.294 752.298C663.366 750.444 663.401 748.596 663.373 746.735C663.658 743.054 663.822 739.346 663.928 735.637C664.135 728.219 664.149 720.774 664.078 713.349C664.007 705.924 663.843 698.486 663.629 691.047C663.515 687.331 663.408 683.608 663.252 679.892C663.43 676.183 663.601 672.475 663.871 668.738Z" fill="#2E6821"/>
<path d="M670.263 756.991C671.182 755.25 671.944 753.452 672.707 751.69C673.754 750.083 674.723 748.42 675.692 746.735C677.616 743.401 679.425 739.99 681.221 736.571C683.016 733.153 684.733 729.692 686.429 726.224L688.958 721.007C690.077 719.394 691.195 717.787 692.414 716.216C691.972 718.141 691.423 720.031 690.882 721.878L688.353 727.115C686.643 730.598 684.897 734.063 683.116 737.513C681.313 740.945 679.489 744.378 677.544 747.754L676.069 750.274C675.549 751.102 675.065 751.951 674.538 752.772C673.264 754.322 671.831 755.736 670.263 756.991Z" fill="#2E6821"/>
<path d="M683.614 800.328H650.947C648.909 800.328 646.939 799.602 645.395 798.281C643.85 796.96 642.835 795.132 642.533 793.13L636.776 755.044C636.377 752.404 655.92 754.492 667.89 754.379C679.161 754.266 697.586 753.218 697.386 754.542L692.036 793.13C691.733 795.133 690.717 796.962 689.171 798.283C687.625 799.604 685.653 800.33 683.614 800.328Z" fill="#ABBCCA"/>
<path d="M667.099 754.386C655.136 754.506 636.398 752.404 636.797 755.044L642.554 793.13C642.856 795.132 643.871 796.96 645.416 798.281C646.96 799.602 648.93 800.328 650.968 800.328H663.892C660.505 796.606 658.611 791.778 658.57 786.76C658.57 785.726 658.698 779.045 663.558 773.708C666.479 770.523 671.21 768.895 680.657 765.633C685.21 764.068 688.843 763.283 692.769 759.97C694.428 758.651 695.929 757.148 697.244 755.49L697.372 754.542C697.586 753.218 678.356 754.273 667.099 754.386Z" fill="#91A6B5"/>
<path d="M356.465 464.168H226.637C225.023 464.168 223.715 465.467 223.715 467.07V548.5C223.715 550.103 225.023 551.402 226.637 551.402H356.465C358.078 551.402 359.386 550.103 359.386 548.5V467.07C359.386 465.467 358.078 464.168 356.465 464.168Z" fill="#9D9F9F"/>
<path d="M358.424 464.168H345.699C345.168 464.168 344.737 464.596 344.737 465.124V550.447C344.737 550.974 345.168 551.402 345.699 551.402H358.424C358.955 551.402 359.386 550.974 359.386 550.447V465.124C359.386 464.596 358.955 464.168 358.424 464.168Z" fill="#454851"/>
<path d="M322.087 563.173H263.158L287.589 532.03C287.588 531.888 287.616 531.746 287.67 531.615C287.725 531.483 287.805 531.363 287.906 531.262C288.008 531.162 288.128 531.082 288.261 531.028C288.394 530.974 288.536 530.946 288.679 530.947H294.422C294.565 530.946 294.707 530.974 294.84 531.028C294.973 531.082 295.093 531.162 295.195 531.262C295.296 531.363 295.376 531.483 295.431 531.615C295.485 531.746 295.513 531.888 295.512 532.03L322.087 563.173Z" fill="#E3EAF3"/>
<path d="M295.512 532.023C295.513 531.881 295.485 531.739 295.431 531.608C295.376 531.476 295.296 531.356 295.195 531.255C295.093 531.155 294.973 531.075 294.84 531.021C294.707 530.967 294.565 530.939 294.422 530.94H288.679C288.536 530.939 288.394 530.967 288.261 531.021C288.128 531.075 288.008 531.155 287.906 531.255C287.805 531.356 287.725 531.476 287.67 531.608C287.616 531.739 287.588 531.881 287.589 532.023L285.751 534.359L310.324 563.172H322.087L295.512 532.023Z" fill="#ABBCCA"/>
<path d="M260.985 563.173H322.052C322.435 563.173 322.815 563.248 323.17 563.394C323.524 563.539 323.846 563.753 324.117 564.023C324.389 564.292 324.604 564.612 324.751 564.964C324.897 565.316 324.973 565.694 324.973 566.075V572.636H258.1V566.075C258.1 565.311 258.402 564.578 258.943 564.035C259.483 563.492 260.217 563.182 260.985 563.173Z" fill="#9D9F9F"/>
<path d="M316.623 563.173H323.905C324.196 563.173 324.475 563.288 324.68 563.492C324.886 563.696 325.002 563.974 325.002 564.263V572.636H315.526V564.263C315.526 563.974 315.641 563.696 315.847 563.492C316.053 563.288 316.332 563.173 316.623 563.173Z" fill="#454851"/>
<path d="M294.657 491.658H284.34C281.287 491.658 278.812 494.117 278.812 497.151V505.425C278.812 508.458 281.287 510.917 284.34 510.917H294.657C297.711 510.917 300.186 508.458 300.186 505.425V497.151C300.186 494.117 297.711 491.658 294.657 491.658Z" fill="#E3EAF3"/>
<path d="M299.061 592.573H287.661V799.981H299.061V592.573Z" fill="#396E8E"/>
<path d="M584.053 586.911H209.353V753.975H584.053V586.911Z" fill="#54A4CC"/>
<path d="M584.045 586.911H500.258V753.975H584.045V586.911Z" fill="#396E8E"/>
<path d="M437.061 640.724H268.916V690.976H437.061V640.724Z" fill="#E3EAF3"/>
<path d="M215.053 592.573H203.653V800.335H215.053V592.573Z" fill="#54A4CC"/>
<path d="M607.956 572.635H185.449V592.573H607.956V572.635Z" fill="#895237"/>
<path d="M589.752 592.573H578.352V799.981H589.752V592.573Z" fill="#396E8E"/>
<path d="M505.958 592.573H494.558V800.335H505.958V592.573Z" fill="#54A4CC"/>
<path d="M607.956 572.635H185.449V592.573H607.956V572.635Z" fill="#C9EFFB"/>
<path d="M607.949 572.635H476.746V592.573H607.949V572.635Z" fill="#87DBF6"/>
<path d="M102.914 415.72C102.914 415.72 95.3192 416.095 94.8917 424.744C94.4642 433.393 87.9165 430.98 87.9165 430.98C87.9165 430.98 92.2983 437.605 101.076 430.725C109.854 423.846 111.001 422.94 111.001 422.94C111.001 422.94 110.965 416.06 103.484 415.678" fill="#000001"/>
<path d="M99.4658 433.818C99.4658 433.818 101.247 455.264 109.783 464.564C118.318 473.865 109.939 433.111 109.939 433.111L99.4658 433.818Z" fill="#000001"/>
<path d="M126.89 474.983C126.441 473.411 128.279 469.596 129.455 467.395C121.724 468.57 112.512 463.149 107.717 453.551C107.43 453.706 107.119 453.816 106.798 453.877C106.798 453.877 106.05 473.85 101.689 474.091C96.5952 478.437 79.9516 493.13 83.343 499.946C86.193 505.665 101.554 502.713 124.467 498.318C126.695 497.974 128.773 496.99 130.445 495.487C135.247 490.929 133.936 482.747 133.295 480.9C132.383 478.486 127.531 477.24 126.89 474.983Z" fill="#EA9D7D"/>
<path d="M110.182 477.255C107.139 470.715 113.523 469.328 113.523 469.328L113.48 469.236C117.698 472.067 122.408 473.291 126.633 472.47C126.832 472.435 127.025 472.385 127.224 472.336C127.829 470.613 128.575 468.941 129.454 467.339C121.724 468.521 112.953 462.59 108.158 452.985C108.043 453.245 107.851 453.464 107.608 453.614C107.366 453.765 107.083 453.839 106.797 453.827C106.797 453.827 106.655 457.543 106.149 461.783C105.479 467.388 104.168 473.95 101.682 474.084C94.7779 479.909 78.1058 494.73 81.4545 501.298C84.8031 507.866 107.681 505.545 124.46 498.311C127.01 497.207 129.105 496.131 130.623 495.296C120.149 496.443 112.91 483.122 110.182 477.255Z" fill="#D18165"/>
<path d="M117.492 415.876C108.657 417.589 103.242 428.765 104.482 441.738H104.418C102.003 442.205 100.578 445.277 101.233 448.653C101.889 452.029 104.382 454.315 106.798 453.87C107.072 453.86 107.342 453.791 107.587 453.669C107.833 453.547 108.05 453.374 108.223 453.162C113.132 462.979 122.137 468.811 129.975 467.317C139.707 465.435 143.148 453.509 140.277 438.907C137.406 424.306 127.217 413.993 117.492 415.876Z" fill="#EA9D7D"/>
<path d="M127.11 456.998C129.813 457.181 132.501 457.545 135.154 458.088C135.154 458.088 134.891 454.294 131.699 453.841C128.507 453.388 127.11 456.998 127.11 456.998Z" fill="#BE3E5F"/>
<path d="M133.936 437.966C134.256 439.381 134.534 440.797 134.926 442.163C135.103 442.804 135.357 443.422 135.681 444.003C135.817 444.244 136.066 444.569 136.266 444.874C136.465 445.178 136.672 445.504 136.857 445.843C137.305 446.576 137.535 447.421 137.52 448.278C137.472 448.797 137.233 449.281 136.85 449.637C136.51 449.942 136.098 450.156 135.653 450.26C134.145 450.546 132.588 450.437 131.136 449.941C132.545 449.88 133.94 449.642 135.289 449.234C135.544 449.13 135.774 448.976 135.966 448.781C136.037 448.703 136.092 448.613 136.127 448.514C136.163 448.416 136.178 448.312 136.173 448.207C136.116 447.614 135.921 447.042 135.603 446.537C135.446 446.24 135.268 445.942 135.076 445.645C134.883 445.348 134.698 445.072 134.506 444.668C134.165 443.959 133.943 443.198 133.85 442.418C133.634 440.939 133.663 439.435 133.936 437.966Z" fill="#D18165"/>
<path d="M121.026 436.061C122.459 436.023 123.887 435.886 125.301 435.651C125.986 435.532 126.66 435.359 127.317 435.134C128.03 434.929 128.628 434.611 129.348 434.32C128.927 434.971 128.355 435.512 127.68 435.899C127.012 436.305 126.272 436.584 125.5 436.72C124.738 436.853 123.959 436.87 123.192 436.769C122.429 436.681 121.693 436.44 121.026 436.061Z" fill="#000001"/>
<path d="M138.966 433.875C139.08 434.215 139.194 434.583 139.301 434.908H139.194C138.432 435.045 137.653 435.062 136.885 434.958C136.12 434.87 135.381 434.629 134.712 434.25C136.137 434.219 137.558 434.094 138.966 433.875Z" fill="#000001"/>
<path d="M138.439 443.324C138.298 443.351 138.154 443.351 138.014 443.323C137.873 443.295 137.74 443.239 137.621 443.16C137.503 443.08 137.401 442.978 137.323 442.859C137.244 442.74 137.19 442.607 137.163 442.467L136.551 439.353C136.513 439.078 136.582 438.8 136.744 438.575C136.907 438.349 137.15 438.194 137.424 438.142C137.698 438.089 137.981 438.143 138.217 438.292C138.452 438.441 138.621 438.674 138.688 438.942L139.294 442.057C139.322 442.196 139.322 442.339 139.294 442.478C139.266 442.617 139.211 442.749 139.131 442.867C139.052 442.984 138.95 443.085 138.831 443.164C138.712 443.242 138.579 443.296 138.439 443.324Z" fill="#000001"/>
<path d="M127.46 443.982C127.319 444.011 127.174 444.011 127.032 443.984C126.891 443.956 126.757 443.901 126.638 443.821C126.518 443.741 126.416 443.639 126.337 443.519C126.258 443.4 126.204 443.266 126.177 443.126L125.565 440.018C125.53 439.876 125.525 439.729 125.55 439.585C125.575 439.441 125.628 439.304 125.708 439.181C125.787 439.058 125.89 438.953 126.012 438.871C126.133 438.789 126.27 438.732 126.414 438.704C126.559 438.676 126.707 438.677 126.851 438.707C126.994 438.737 127.13 438.796 127.251 438.88C127.371 438.964 127.473 439.071 127.55 439.194C127.628 439.318 127.68 439.457 127.702 439.601L128.315 442.715C128.369 442.996 128.31 443.286 128.15 443.523C127.99 443.761 127.742 443.926 127.46 443.982Z" fill="#000001"/>
<path d="M104.333 444.739C104.098 445.906 104.081 447.105 104.283 448.278C104.401 448.825 104.58 449.357 104.817 449.864C104.917 450.14 105.088 450.394 105.223 450.692C105.359 450.989 105.544 451.244 105.679 451.583C105.341 451.481 105.016 451.341 104.71 451.166C104.413 450.976 104.14 450.75 103.898 450.494C103.385 449.957 103.034 449.287 102.886 448.561C102.729 447.836 102.786 447.082 103.05 446.388C103.291 445.717 103.74 445.14 104.333 444.739Z" fill="#D18165"/>
<path d="M104.418 441.696C104.418 441.696 108.593 456.29 112.027 461.131C115.205 465.605 121.147 470.028 130.402 469.059C132.16 468.887 133.831 468.214 135.212 467.119C137.919 464.946 141.795 460.374 141.054 452.305C141.054 452.305 138.696 449.651 132.34 449.786C125.985 449.92 124.382 451.541 123.292 452.766C122.202 453.99 117.35 459.886 114.927 458.038C112.505 456.191 106.655 444.315 109.413 437.916C112.17 431.518 115.348 434.165 111.978 426.875C111.978 426.875 116.801 425.12 125.23 426.96C126.965 427.359 128.786 427.123 130.36 426.295C131.628 425.587 132.768 424.582 132.661 423.145C134.909 425.927 136.822 428.96 138.361 432.183C138.361 432.183 142.443 426.019 136.743 420.908C131.891 416.556 130.374 413.951 128.749 413.342C125.529 412.132 124.182 414.05 121.012 414.602C117.841 415.154 117.236 413.151 113.545 415.105C109.854 417.058 108.28 420.009 107.019 422.805C107.019 422.805 103.392 422.31 100.086 428.772C98.6329 431.638 98.1127 446.24 104.418 441.696ZM126.099 452.907C126.961 452.079 129.455 450.734 133.074 451.371C136.53 451.973 136.993 454.202 137.527 455.901C137.796 456.713 137.878 457.573 137.769 458.421C137.527 460.119 136.651 460.742 135.133 460.912C133.252 461.11 132.839 458.385 131.492 458.534C130.146 458.683 130.338 460.983 127.004 461.124C123.669 461.266 123.876 455.03 126.099 452.907Z" fill="#000001"/>
<path d="M161.951 799.295C151.976 800.71 142.265 797.398 138.702 794.496C135.14 791.594 129.347 792.741 129.347 792.741L129.518 799.642L119.095 799.337C119.095 799.337 118.582 792.493 118.112 786.335C117.877 783.249 118.888 781.537 119.287 778.55C119.686 775.563 121.838 770.764 121.838 770.764C127.467 770.948 141.973 771.79 144.637 768.591C145.661 770.657 147.032 772.534 148.691 774.14C149.226 774.685 149.803 775.223 150.387 775.747C150.971 776.271 151.384 776.568 151.897 776.971C152.56 777.488 153.23 777.998 153.935 778.5C161.06 783.497 169.937 787.326 174.846 790.879C182.527 796.506 171.925 797.872 161.951 799.295Z" fill="#EA9D7D"/>
<path d="M62.5314 794.107C53.3119 790.058 46.8568 782.124 45.3891 777.785C43.9214 773.447 38.6134 770.509 38.6134 770.509L35.6923 775.138L27 769.377C27 769.377 29.3868 765.47 32.2795 759.999C33.7044 757.267 35.507 756.347 37.4236 754.046C39.3402 751.746 43.729 748.809 43.729 748.809C48.4029 751.93 60.2443 760.296 64.1986 758.973C63.9588 761.262 64.1178 763.574 64.6688 765.81C64.8327 766.56 65.0322 767.317 65.253 768.068C65.4525 768.69 65.6591 769.292 65.8729 769.908C66.1579 770.693 66.4571 771.479 66.792 772.272C70.1335 780.256 75.6339 788.19 77.8924 793.788C81.4406 802.593 71.7509 798.155 62.5314 794.107Z" fill="#EA9D7D"/>
<path d="M121.838 770.807C121.838 770.807 117.649 780.171 118.119 786.336C118.226 787.751 118.325 788.969 118.418 789.959C122.102 790.03 126.398 789.719 124.709 787.73C121.902 784.432 124.161 770.871 124.161 770.871L121.838 770.807Z" fill="#7C2F13"/>
<path d="M176.407 792.26C175.919 791.768 175.39 791.318 174.825 790.915C171.583 788.565 166.589 786.088 161.53 783.243C157.529 784.348 153.951 786.615 151.256 789.755C148.926 792.586 148.741 797.158 148.114 797.936C150.693 800.513 176.92 797.229 177.419 794.652C177.422 794.624 177.422 794.596 177.419 794.567C177.368 793.703 177.01 792.885 176.407 792.26Z" fill="#7C2F13"/>
<path d="M161.95 799.295C169.959 798.149 178.338 797.059 177.369 793.775C152.809 802.268 141.873 793.449 139.75 790.703C137.626 787.957 133.152 788.098 133.152 788.098C124.994 788.806 120.384 786.683 118.033 784.913C118.033 785.394 118.033 785.876 118.097 786.329C118.56 792.486 119.081 799.331 119.081 799.331L129.526 799.635L129.355 792.734C129.355 792.734 134.812 791.871 138.175 796.415C140.69 799.798 151.976 800.753 161.95 799.295Z" fill="#7C2F13"/>
<path d="M138.197 770.807C139.098 772.736 140.322 774.5 141.816 776.023C143.256 777.575 144.832 778.996 146.526 780.27C148.204 781.548 149.973 782.705 151.819 783.731C152.738 784.241 153.686 784.708 154.669 785.147C155.653 785.585 156.614 785.982 157.626 786.314C156.849 785.607 156.03 784.899 155.218 784.262C154.406 783.625 153.601 782.952 152.767 782.33C151.15 781.041 149.482 779.824 147.858 778.564C146.234 777.304 144.595 776.066 142.985 774.792C141.374 773.518 139.75 772.251 138.197 770.807Z" fill="#7C2F13"/>
<path d="M43.736 748.809C43.736 748.809 35.1862 754.535 32.2864 760.006C31.6096 761.287 31.061 762.349 30.605 763.24C33.69 765.236 37.5018 767.239 37.1313 764.656C36.5114 760.409 45.6811 750.076 45.6811 750.076C44.9258 749.595 44.2632 749.163 43.736 748.809Z" fill="#7C2F13"/>
<path d="M78.5194 795.799C78.3749 795.125 78.1673 794.466 77.8995 793.831C76.4104 790.122 73.4964 785.394 70.732 780.312C66.7479 779.146 62.5044 779.183 58.5414 780.419C55.0645 781.586 52.4569 785.373 51.5093 785.699C52.3215 789.238 76.2964 800.293 78.1061 798.368L78.1631 798.297C78.5869 797.536 78.7137 796.647 78.5194 795.799Z" fill="#7C2F13"/>
<path d="M62.5385 794.107C69.9412 797.363 77.6359 800.852 78.5479 797.554C53.205 791.799 48.6238 778.564 48.3103 775.117C47.9968 771.67 44.1066 769.455 44.1066 769.455C36.8109 765.767 34.0464 761.521 32.992 758.781C32.7426 759.199 32.5003 759.617 32.2795 760.027C29.3868 765.498 27 769.398 27 769.398L35.6922 775.16L38.6063 770.531C38.6063 770.531 43.9143 773.475 45.3891 777.807C46.8639 782.138 53.319 790.065 62.5385 794.107Z" fill="#7C2F13"/>
<path d="M57.6007 757.43C57.3362 759.539 57.4301 761.678 57.8785 763.757C58.2722 765.833 58.8492 767.869 59.6027 769.844C60.3382 771.815 61.2193 773.729 62.2389 775.57C62.7448 776.49 63.3005 777.382 63.8634 778.274C64.4262 779.166 65.0675 780.008 65.7443 780.822C65.4878 779.788 65.1387 778.798 64.8038 777.814C64.469 776.83 64.0914 775.846 63.7565 774.884C63.044 772.937 62.3315 771.026 61.619 769.101C60.9066 767.176 60.1941 765.272 59.4816 763.34C58.7691 761.407 58.1493 759.468 57.6007 757.43Z" fill="#7C2F13"/>
<path d="M138.204 564.085C138.204 564.085 149.333 662.134 149.682 670.776C150.031 679.418 144.987 769.243 144.987 769.243C144.987 769.243 131.45 774.657 121.739 770.969C121.739 770.969 114.087 702.103 115.248 684.62L112.697 651.411C112.697 651.411 110.61 679.05 108.522 682.278C106.435 685.505 65.8589 761.287 65.8589 761.287C65.8589 761.287 42.6748 750.918 42.6748 747.924C42.6748 747.924 56.1193 692.64 73.2758 677.21L73.5109 613.064C69.6642 603.403 68.2316 592.96 69.3358 582.629C70.0716 576.071 71.8312 569.667 74.5511 563.647C74.5511 563.647 124.296 571 138.204 564.085Z" fill="#FFC065"/>
<path d="M113.502 640.717C115.362 619.483 119.202 599.121 120.456 599.255C121.418 599.354 120.456 609.921 120.107 634.149C119.85 653.917 120.242 667.188 120.819 685.979C121.909 722.642 123.384 728.927 124.973 734.002C129.119 746.999 135.936 758.999 144.994 769.243C140.434 771.288 133.038 773.631 124.781 771.819C123.753 771.597 122.739 771.313 121.745 770.97C121.745 770.97 114.093 702.103 115.255 684.62L112.79 652.494C112.875 649.288 113.067 645.749 113.502 640.717Z" fill="#FFAA39"/>
<path d="M59.9237 726.231C62.7737 711.042 71.4232 708.055 78.5408 690.283C82.8157 679.581 83.3144 667.301 84.3048 642.741C85.8224 605.073 81.8254 602.192 86.8198 593.034C99.9793 568.92 138.745 568.12 138.204 564.086C123.185 569.21 81.4834 564.546 75.3204 563.767L74.8217 563.703H74.5794C71.8486 569.717 70.0771 576.117 69.3285 582.672C68.2243 593.003 69.6569 603.446 73.5036 613.106L73.2685 677.253C56.112 692.682 42.6675 747.967 42.6675 747.967C43.2018 748.675 43.7789 749.333 44.3988 749.998C49.0584 753.587 61.7833 759.475 65.0607 760.969H65.1248H65.189L65.36 761.039L65.4597 761.089H65.5238L65.6236 761.132H65.6592L65.8444 761.216C61.7334 752.886 57.2733 740.238 59.9237 726.231Z" fill="#FFAA39"/>
<path d="M105.736 574.263C105.736 574.263 95.0491 589.834 83.6494 591.25" stroke="white" stroke-width="3" stroke-miterlimit="10" stroke-linecap="round"/>
<path d="M94.6927 586.048C94.6927 586.048 93.2677 660.995 88.2803 676.566C83.293 692.137 66.6779 695.874 51.4736 754.521" stroke="white" stroke-width="3" stroke-miterlimit="10"/>
<path d="M155.596 518.929L164.958 544.09C165.265 544.915 165.79 545.642 166.479 546.195C167.167 546.748 167.993 547.107 168.869 547.233L203.987 552.272C205.307 552.464 206.653 552.371 207.933 551.998C209.213 551.625 210.397 550.983 211.404 550.113C215.294 546.766 221.543 541.563 222.854 541.563C224.784 541.563 228.226 542.753 220.274 549.632C220.274 549.632 221.471 550.637 225.262 550.637C229.052 550.637 243.687 550.213 244.007 551.387C244.328 552.562 247.983 555.018 228.105 555.443C228.105 555.443 227.243 557.255 228.967 557.255C230.691 557.255 247.021 557.149 245.404 559.286C243.786 561.424 241.428 560.992 228.425 561.211C228.425 561.211 227.456 562.627 228.105 562.811C228.753 562.995 244.228 563.448 244.228 564.729C244.228 566.01 247.021 567.617 224.877 566.548C224.877 566.548 224.556 567.256 226.815 567.964C229.074 568.671 238.927 571.057 236.377 572.21C233.826 573.364 233.477 572.854 221.977 569.754L211.953 568.155C210.244 567.878 208.502 567.859 206.787 568.098C196.3 569.563 157.021 572.89 147.267 562.825C138.126 553.398 133.209 519.686 133.209 519.686L155.596 518.929Z" fill="#EA9D7D"/>
<path d="M244.264 564.729C244.264 563.448 228.782 563.024 228.14 562.811C227.499 562.599 228.461 561.212 228.461 561.212C238.386 561.049 242.112 561.254 244.036 560.412C239.312 558.961 230.442 560.681 215.059 562.28C187.116 565.189 178.951 563.427 175.73 562.62C166.874 560.405 158.424 558.027 153.159 550.729C146.747 541.84 149.433 531.478 149.668 519.127L133.245 519.679C133.245 519.679 138.161 553.391 147.302 562.818C157.049 572.876 196.25 569.563 206.787 568.091C208.514 567.852 210.267 567.871 211.988 568.148L222.013 569.747C233.512 572.848 233.833 573.378 236.412 572.203C238.991 571.029 229.109 568.573 226.851 567.957C224.592 567.341 224.913 566.541 224.913 566.541C247.057 567.617 244.264 566.01 244.264 564.729Z" fill="#D18165"/>
<path d="M220.296 549.632C220.296 549.632 219.811 561.473 208.846 560.674" stroke="#2F170B" stroke-width="2" stroke-miterlimit="10"/>
<path d="M203.033 552.131V567.829" stroke="#2F170B" stroke-width="6" stroke-linecap="round" stroke-linejoin="round"/>
<path d="M169.596 544.288C168.79 544.029 168.058 543.582 167.461 542.985C166.864 542.388 166.418 541.658 166.162 540.856L150.9 493.965C149.245 488.659 146.017 483.972 141.638 480.517C140.523 479.63 139.314 478.866 138.033 478.238C137.922 478.184 137.799 478.16 137.676 478.167C137.552 478.175 137.433 478.214 137.329 478.281C137.226 478.348 137.142 478.441 137.085 478.55C137.029 478.659 137.002 478.781 137.007 478.904L138.368 520.521L139.494 550.425C139.693 555.788 141.978 560.866 145.869 564.59C149.759 568.313 154.952 570.393 160.355 570.391H200.539L199.513 550.347C200.346 550.368 177.725 546.872 169.596 544.288Z" fill="#25BEEF"/>
<path d="M200.218 563.505C169.068 566.867 157.953 560.504 153.671 553.851C148.805 546.292 148.983 532.49 149.183 517.414C149.183 517.414 149.354 504.639 144.609 493.994C143.761 492.09 141.417 486.916 138.795 487.029C138.236 487.083 137.715 487.334 137.327 487.737L138.396 520.529L139.522 550.432C139.721 555.796 142.006 560.873 145.897 564.597C149.787 568.321 154.98 570.401 160.383 570.399H200.567L200.218 563.505Z" fill="#1A87C4"/>
<path d="M137.235 568.785H73.9809C73.6983 568.784 73.4192 568.722 73.1636 568.602C72.9079 568.483 72.6819 568.309 72.5016 568.093C72.3214 567.876 72.1913 567.623 72.1207 567.351C72.05 567.08 72.0405 566.796 72.0928 566.52L89.1069 476.483L102.53 473.532C107.325 483.632 122.095 484.092 126.811 473.956L137 477.807C138.757 478.23 140.311 479.251 141.391 480.692C142.47 482.133 143.009 483.904 142.913 485.698L142.806 488.89C141.966 514.55 141.12 540.207 140.27 565.862C140.263 566.074 140.206 567.107 137.235 568.785Z" fill="#25BEEF"/>
<path d="M34.4169 615.619C34.743 614.343 34.9176 613.034 34.937 611.719C35.1009 600.706 36.1625 558.671 42.5463 539.525C44.584 533.417 63.2581 502.339 63.2581 502.339L89.9262 507.944L66.4144 546.723C65.3728 548.443 64.6061 550.312 64.1416 552.265L49.8136 612.887C49.6187 613.718 49.6128 614.582 49.7965 615.416C49.9801 616.25 50.3486 617.032 50.8752 617.707C53.889 621.55 59.8595 629.364 59.7669 630.793C59.6316 632.712 58.2066 636.038 51.8299 627.7C51.8299 627.7 50.7398 628.819 50.4904 632.591C50.2411 636.364 49.6853 650.88 48.4884 651.121C47.2914 651.362 44.5769 654.823 45.4746 635.09C45.4746 635.09 43.7076 634.113 43.5936 635.797C43.4796 637.482 42.4964 653.704 40.4587 651.963C38.421 650.222 39.0338 647.908 39.6608 634.976C39.6608 634.976 38.3284 633.922 38.0719 634.545C37.8154 635.168 36.3548 650.484 35.0653 650.399C33.7757 650.314 31.9873 652.975 34.538 631.105C34.538 631.105 33.8255 630.73 33.0133 632.924C32.2011 635.118 29.0947 644.758 28.083 642.125C27.0712 639.492 27.6341 639.202 31.51 628.012L34.4169 615.619Z" fill="#EA9D7D"/>
<path d="M89.9049 507.937L83.6137 506.613C78.9114 512.544 73.069 516.848 65.4597 527.917C59.5248 536.545 55.6845 545.322 53.9817 549.031C49.3078 559.194 50.2554 564.382 47.1419 589.459C45.2681 604.52 44.3347 612.051 43.3515 615.986C43.3515 615.986 36.3122 644.192 39.7463 651.177C39.9072 651.503 40.1533 651.779 40.4588 651.977C42.4965 653.718 43.4797 637.517 43.5937 635.811C43.7077 634.106 45.4747 635.104 45.4747 635.104C44.577 654.837 47.2844 651.383 48.4885 651.135C49.6926 650.887 50.2341 636.441 50.4834 632.633C50.7328 628.861 51.8229 627.743 51.8229 627.743C58.1996 636.08 59.6245 632.754 59.7599 630.836C59.8525 629.42 53.8819 621.592 50.8682 617.749C50.3416 617.074 49.9731 616.292 49.7894 615.458C49.6058 614.624 49.6116 613.76 49.8066 612.929L64.1345 552.308C64.599 550.355 65.3658 548.485 66.4073 546.766L89.9049 507.937Z" fill="#D18165"/>
<path d="M35.0015 611.181C34.5552 611.183 34.1249 611.016 33.7989 610.713C33.473 610.411 33.2761 609.995 33.2488 609.553C32.7073 601.059 33.9613 561.771 38.799 542.13C42.3614 527.783 67.8468 490.617 67.8468 490.617C67.8468 490.617 79.5742 478.422 89.1072 476.462L94.5363 504.589L67.1058 549.611C66.8422 550.014 55.9056 599.219 53.2908 609.355C53.1563 609.872 52.8522 610.33 52.4265 610.657C52.0008 610.984 51.4777 611.161 50.9397 611.159L35.0015 611.181Z" fill="#25BEEF"/>
<path d="M75.3278 533.601L94.4009 504.808L94.3581 504.532C94.2773 504.008 94.0609 503.513 93.7299 503.097C93.399 502.68 92.9649 502.356 92.4701 502.157C91.9753 501.957 91.4368 501.888 90.9073 501.957C90.3777 502.026 89.8753 502.23 89.4491 502.55C85.8084 505.296 81.1559 510.039 76.8952 514.377C72.4494 518.907 67.6758 523.77 65.46 527.917L74.0097 533.855C74.2189 533.994 74.4747 534.045 74.7215 533.997C74.9682 533.949 75.1861 533.807 75.3278 533.601Z" fill="#1A87C4"/>
<path d="M140.27 565.862C136.081 564.396 125.194 564.34 108.7 559.18C93.2249 554.339 90.1042 550.404 88.6935 547.587C85.3805 540.962 87.5464 532.568 88.437 529.114C90.033 522.914 90.4889 520.542 93.6951 512.679C94.7709 510.039 95.1201 503.648 93.6951 503.124C92.035 502.515 85.5016 509.947 80.6995 519.835L72.1782 566.477C72.1164 566.757 72.1184 567.046 72.1842 567.325C72.25 567.603 72.3779 567.863 72.5584 568.086C72.7389 568.309 72.9675 568.489 73.2272 568.612C73.487 568.735 73.7713 568.799 74.0592 568.799H137.235C138.023 568.797 138.781 568.492 139.347 567.947C139.913 567.401 140.244 566.659 140.27 565.876V565.862Z" fill="#1A87C4"/>
<path d="M50.9394 611.181C51.4774 611.182 52.0005 611.005 52.4263 610.678C52.852 610.351 53.1561 609.893 53.2906 609.376C55.9054 599.24 66.8277 550.035 67.1056 549.632L84.9176 520.351L86.7771 511.419L65.4027 527.917C65.4027 527.917 56.7889 538.435 54.4804 552.13C52.172 565.826 44.2278 611.131 44.2207 611.181H50.9394Z" fill="#1A87C4"/>
</svg>
