<svg width="375" height="61" viewBox="0 0 375 61" fill="none" xmlns="http://www.w3.org/2000/svg">
<path fill-rule="evenodd" clip-rule="evenodd" d="M55.0737 11.0097C55.0737 5.84799 50.8893 1.66357 45.7276 1.66357H9.34615C4.18441 1.66357 0 5.84799 0 11.0097C0 16.1715 4.18441 20.3559 9.34614 20.3559H45.7276C50.8893 20.3559 55.0737 16.1715 55.0737 11.0097ZM49.8287 11.0097C49.8287 8.89206 48.112 7.17538 45.9944 7.17538H9.31796C7.20033 7.17538 5.48364 8.89206 5.48364 11.0097C5.48364 13.1273 7.20032 14.844 9.31796 14.844H45.9944C48.112 14.844 49.8287 13.1273 49.8287 11.0097Z" fill="#45ADE8"/>
<path fill-rule="evenodd" clip-rule="evenodd" d="M27.5369 1.6635C22.4017 1.6635 18.2388 5.82642 18.2388 10.9616L18.2388 47.7233C18.2388 52.8586 22.4017 57.0215 27.5369 57.0215C32.6722 57.0215 36.8351 52.8586 36.8351 47.7233L36.8351 10.9617C36.8351 5.82643 32.6722 1.6635 27.5369 1.6635ZM27.5368 6.9357C25.43 6.9357 23.7222 8.64357 23.7222 10.7503L23.7222 47.695C23.7222 49.8018 25.43 51.5097 27.5368 51.5097C29.6436 51.5097 31.3514 49.8018 31.3514 47.695L31.3514 10.7503C31.3514 8.64357 29.6436 6.9357 27.5368 6.9357Z" fill="#45ADE8"/>
<path fill-rule="evenodd" clip-rule="evenodd" d="M78.8038 7.67676C75.1671 5.39723 70.4065 6.51936 68.1707 10.1831L46.8561 45.1112C44.6203 48.7749 45.756 53.5929 49.3927 55.8725C53.0293 58.152 57.7899 57.0299 60.0257 53.3661L81.3404 18.438C83.5761 14.7743 82.4405 9.9563 78.8038 7.67676ZM76.0025 12.2669C74.5106 11.3317 72.5575 11.7921 71.6403 13.2951L51.2802 46.6589C50.363 48.162 50.8289 50.1386 52.3208 51.0738C53.8128 52.009 55.7659 51.5486 56.6831 50.0456L77.0432 16.6818C77.9604 15.1787 77.4945 13.2021 76.0025 12.2669Z" fill="#FBA643"/>
<path fill-rule="evenodd" clip-rule="evenodd" d="M73.8952 3.97504C77.3976 1.77968 81.9824 2.86037 84.1356 6.38881L108.101 45.6611C110.254 49.1896 109.161 53.8296 105.658 56.025C102.156 58.2203 97.5712 57.1396 95.418 53.6112L71.4524 14.3389C69.2991 10.8104 70.3929 6.17039 73.8952 3.97504ZM76.9202 8.93213C78.3571 8.03147 80.238 8.47483 81.1214 9.9224L103.498 46.5906C104.381 48.0382 103.933 49.9418 102.496 50.8425C101.059 51.7431 99.1779 51.2998 98.2946 49.8522L75.918 13.184C75.0346 11.7364 75.4833 9.83279 76.9202 8.93213Z" fill="#FBA643"/>
<ellipse cx="77.3431" cy="12.4799" rx="11.1223" ry="11.6915" transform="rotate(-90 77.3431 12.4799)" fill="#21BF73"/>
<path d="M130.3 50V24.2H119.5V15H152.2V24.2H141.1V50H130.3ZM165.263 50.5C162.363 50.5 159.78 49.9 157.513 48.7C155.246 47.5 153.463 45.8667 152.163 43.8C150.863 41.7 150.213 39.3 150.213 36.6C150.213 33.9 150.863 31.5167 152.163 29.45C153.463 27.35 155.246 25.7 157.513 24.5C159.78 23.3 162.363 22.7 165.263 22.7C168.163 22.7 170.73 23.3 172.963 24.5C175.23 25.7 176.996 27.35 178.263 29.45C179.563 31.5167 180.213 33.9 180.213 36.6C180.213 39.3 179.563 41.7 178.263 43.8C176.996 45.8667 175.23 47.5 172.963 48.7C170.73 49.9 168.163 50.5 165.263 50.5ZM165.263 42C166.163 42 166.963 41.7667 167.663 41.3C168.396 40.8333 168.963 40.2 169.363 39.4C169.763 38.5667 169.963 37.6333 169.963 36.6C169.963 35.5333 169.763 34.6 169.363 33.8C168.963 32.9667 168.396 32.3167 167.663 31.85C166.963 31.3833 166.163 31.15 165.263 31.15C164.33 31.15 163.496 31.3833 162.763 31.85C162.063 32.3167 161.496 32.9667 161.063 33.8C160.663 34.6 160.463 35.5333 160.463 36.6C160.463 37.6333 160.663 38.5667 161.063 39.4C161.496 40.2 162.063 40.8333 162.763 41.3C163.496 41.7667 164.33 42 165.263 42ZM195.171 42.5L190.171 36.2L202.521 23.25H215.721L195.171 42.5ZM185.221 50V13H195.371V50H185.221ZM203.421 50L194.521 37.45L201.621 32.35L215.021 50H203.421ZM230.595 50.5C227.695 50.5 225.112 49.9 222.845 48.7C220.578 47.5 218.795 45.8667 217.495 43.8C216.195 41.7 215.545 39.3 215.545 36.6C215.545 33.9 216.195 31.5167 217.495 29.45C218.795 27.35 220.578 25.7 222.845 24.5C225.112 23.3 227.695 22.7 230.595 22.7C233.495 22.7 236.062 23.3 238.295 24.5C240.562 25.7 242.328 27.35 243.595 29.45C244.895 31.5167 245.545 33.9 245.545 36.6C245.545 39.3 244.895 41.7 243.595 43.8C242.328 45.8667 240.562 47.5 238.295 48.7C236.062 49.9 233.495 50.5 230.595 50.5ZM230.595 42C231.495 42 232.295 41.7667 232.995 41.3C233.728 40.8333 234.295 40.2 234.695 39.4C235.095 38.5667 235.295 37.6333 235.295 36.6C235.295 35.5333 235.095 34.6 234.695 33.8C234.295 32.9667 233.728 32.3167 232.995 31.85C232.295 31.3833 231.495 31.15 230.595 31.15C229.662 31.15 228.828 31.3833 228.095 31.85C227.395 32.3167 226.828 32.9667 226.395 33.8C225.995 34.6 225.795 35.5333 225.795 36.6C225.795 37.6333 225.995 38.5667 226.395 39.4C226.828 40.2 227.395 40.8333 228.095 41.3C228.828 41.7667 229.662 42 230.595 42Z" fill="#45ADE8"/>
<path d="M246.053 50L260.103 15H268.603L282.553 50H271.853L266.253 34.7C265.886 33.6667 265.569 32.7833 265.303 32.05C265.036 31.3167 264.803 30.6333 264.603 30C264.403 29.3333 264.203 28.6333 264.003 27.9C263.803 27.1333 263.603 26.2333 263.403 25.2H265.103C264.903 26.2333 264.703 27.1333 264.503 27.9C264.303 28.6333 264.086 29.3333 263.853 30C263.653 30.6333 263.403 31.3167 263.103 32.05C262.836 32.7833 262.519 33.6667 262.153 34.7L256.553 50H246.053ZM253.053 44.8L256.203 37.45H272.453L275.303 44.8H253.053ZM283.224 60.95L279.374 53.1C281.074 53.1 282.358 52.9167 283.224 52.55C284.124 52.2167 284.724 51.5667 285.024 50.6C285.358 49.6667 285.524 48.2833 285.524 46.45V23.25H295.674V48.85C295.674 51.8167 295.208 54.1833 294.274 55.95C293.374 57.7167 292.008 58.9833 290.174 59.75C288.341 60.55 286.024 60.95 283.224 60.95ZM290.724 18.4C288.924 18.4 287.508 17.9833 286.474 17.15C285.474 16.3167 284.974 15.1333 284.974 13.6C284.974 12.2 285.491 11.05 286.524 10.15C287.558 9.25 288.958 8.8 290.724 8.8C292.524 8.8 293.924 9.21666 294.924 10.05C295.958 10.8833 296.474 12.0667 296.474 13.6C296.474 15 295.958 16.15 294.924 17.05C293.891 17.95 292.491 18.4 290.724 18.4ZM311.651 50.55C309.618 50.55 307.901 50.1333 306.501 49.3C305.101 48.4667 304.035 47.25 303.301 45.65C302.568 44.0167 302.201 42.05 302.201 39.75V23.25H312.351V38.9C312.351 39.6333 312.468 40.25 312.701 40.75C312.968 41.25 313.335 41.6333 313.801 41.9C314.268 42.1667 314.835 42.3 315.501 42.3C316.001 42.3 316.451 42.2333 316.851 42.1C317.285 41.9333 317.651 41.7 317.951 41.4C318.251 41.1 318.485 40.7667 318.651 40.4C318.818 40 318.901 39.5833 318.901 39.15V23.25H329.051V50H319.751L319.151 44.6L321.051 44C320.685 45.2667 320.035 46.4 319.101 47.4C318.201 48.3667 317.101 49.1333 315.801 49.7C314.501 50.2667 313.118 50.55 311.651 50.55ZM336.148 50V23.25H345.548L346.048 28.65L343.898 29.25C344.265 27.9833 344.915 26.8667 345.848 25.9C346.815 24.9 347.965 24.1167 349.298 23.55C350.632 22.9833 352.048 22.7 353.548 22.7C355.548 22.7 357.248 23.1167 358.648 23.95C360.048 24.7833 361.098 26.0167 361.798 27.65C362.532 29.25 362.898 31.2 362.898 33.5V50H352.748V34.35C352.748 33.6167 352.632 33 352.398 32.5C352.165 32 351.815 31.6167 351.348 31.35C350.882 31.0833 350.332 30.95 349.698 30.95C349.198 30.95 348.732 31.0333 348.298 31.2C347.898 31.3333 347.548 31.55 347.248 31.85C346.948 32.15 346.715 32.4833 346.548 32.85C346.382 33.2167 346.298 33.6333 346.298 34.1V50H341.248C339.982 50 338.915 50 338.048 50C337.215 50 336.582 50 336.148 50Z" fill="#FBA643"/>
</svg>
