<svg width="175" height="74" viewBox="0 0 175 74" fill="none" xmlns="http://www.w3.org/2000/svg">
<path fill-rule="evenodd" clip-rule="evenodd" d="M80.4501 7.48661C80.4501 3.97663 77.6047 1.13123 74.0947 1.13123H49.3554C45.8454 1.13123 43 3.97663 43 7.48661C43 10.9966 45.8454 13.842 49.3554 13.842H74.0947C77.6047 13.842 80.4501 10.9966 80.4501 7.48661ZM76.8835 7.48664C76.8835 6.04665 75.7162 4.87931 74.2762 4.87931H49.3362C47.8962 4.87931 46.7289 6.04665 46.7289 7.48664C46.7289 8.92664 47.8962 10.094 49.3362 10.094H74.2762C75.7162 10.094 76.8835 8.92664 76.8835 7.48664Z" fill="#45ADE8"/>
<path fill-rule="evenodd" clip-rule="evenodd" d="M61.7251 1.13123C58.2331 1.13123 55.4023 3.96202 55.4023 7.45398L55.4023 32.4519C55.4023 35.9439 58.2331 38.7747 61.7251 38.7747C65.217 38.7747 68.0478 35.9439 68.0478 32.4519L68.0478 7.45398C68.0478 3.96202 65.217 1.13123 61.7251 1.13123ZM61.725 4.71629C60.2924 4.71629 59.1311 5.87764 59.1311 7.31024L59.1311 32.4326C59.1311 33.8652 60.2924 35.0266 61.725 35.0266C63.1576 35.0266 64.319 33.8652 64.319 32.4326L64.319 7.31024C64.319 5.87764 63.1576 4.71629 61.725 4.71629Z" fill="#45ADE8"/>
<path fill-rule="evenodd" clip-rule="evenodd" d="M96.5866 5.22025C94.1137 3.67016 90.8765 4.43321 89.3561 6.92456L74.8622 30.6757C73.3418 33.167 74.1141 36.4432 76.587 37.9933C79.06 39.5434 82.2972 38.7804 83.8175 36.289L98.3115 12.5379C99.8318 10.0466 99.0596 6.77034 96.5866 5.22025ZM94.6817 8.34151C93.6672 7.70558 92.3391 8.01862 91.7154 9.04071L77.8705 31.7281C77.2468 32.7502 77.5636 34.0943 78.5782 34.7302C79.5927 35.3662 80.9208 35.0531 81.5445 34.031L95.3894 11.3436C96.0131 10.3215 95.6963 8.97744 94.6817 8.34151Z" fill="#FBA643"/>
<path fill-rule="evenodd" clip-rule="evenodd" d="M93.2487 2.703C95.6303 1.21016 98.7479 1.94503 100.212 4.34437L116.509 31.0495C117.973 33.4489 117.229 36.6041 114.848 38.0969C112.466 39.5898 109.348 38.8549 107.884 36.4556L91.5875 9.75041C90.1233 7.35107 90.8671 4.19583 93.2487 2.703ZM95.3057 6.07387C96.2828 5.46142 97.5618 5.7629 98.1625 6.74725L113.379 31.6816C113.979 32.666 113.674 33.9604 112.697 34.5729C111.72 35.1853 110.441 34.8839 109.84 33.8995L94.6242 8.96512C94.0235 7.98077 94.3287 6.68632 95.3057 6.07387Z" fill="#FBA643"/>
<ellipse cx="95.5933" cy="8.48642" rx="7.56314" ry="7.95021" transform="rotate(-90 95.5933 8.48642)" fill="#21BF73"/>
<path d="M7.38 66V50.52H0.9V45H20.52V50.52H13.86V66H7.38ZM28.3577 66.3C26.6177 66.3 25.0677 65.94 23.7077 65.22C22.3477 64.5 21.2777 63.52 20.4977 62.28C19.7177 61.02 19.3277 59.58 19.3277 57.96C19.3277 56.34 19.7177 54.91 20.4977 53.67C21.2777 52.41 22.3477 51.42 23.7077 50.7C25.0677 49.98 26.6177 49.62 28.3577 49.62C30.0977 49.62 31.6377 49.98 32.9777 50.7C34.3377 51.42 35.3977 52.41 36.1577 53.67C36.9377 54.91 37.3277 56.34 37.3277 57.96C37.3277 59.58 36.9377 61.02 36.1577 62.28C35.3977 63.52 34.3377 64.5 32.9777 65.22C31.6377 65.94 30.0977 66.3 28.3577 66.3ZM28.3577 61.2C28.8977 61.2 29.3777 61.06 29.7977 60.78C30.2377 60.5 30.5777 60.12 30.8177 59.64C31.0577 59.14 31.1777 58.58 31.1777 57.96C31.1777 57.32 31.0577 56.76 30.8177 56.28C30.5777 55.78 30.2377 55.39 29.7977 55.11C29.3777 54.83 28.8977 54.69 28.3577 54.69C27.7977 54.69 27.2977 54.83 26.8577 55.11C26.4377 55.39 26.0977 55.78 25.8377 56.28C25.5977 56.76 25.4777 57.32 25.4777 57.96C25.4777 58.58 25.5977 59.14 25.8377 59.64C26.0977 60.12 26.4377 60.5 26.8577 60.78C27.2977 61.06 27.7977 61.2 28.3577 61.2ZM46.3024 61.5L43.3024 57.72L50.7124 49.95H58.6324L46.3024 61.5ZM40.3324 66V43.8H46.4224V66H40.3324ZM51.2524 66L45.9124 58.47L50.1724 55.41L58.2124 66H51.2524ZM67.557 66.3C65.817 66.3 64.267 65.94 62.907 65.22C61.547 64.5 60.477 63.52 59.697 62.28C58.917 61.02 58.527 59.58 58.527 57.96C58.527 56.34 58.917 54.91 59.697 53.67C60.477 52.41 61.547 51.42 62.907 50.7C64.267 49.98 65.817 49.62 67.557 49.62C69.297 49.62 70.837 49.98 72.177 50.7C73.537 51.42 74.597 52.41 75.357 53.67C76.137 54.91 76.527 56.34 76.527 57.96C76.527 59.58 76.137 61.02 75.357 62.28C74.597 63.52 73.537 64.5 72.177 65.22C70.837 65.94 69.297 66.3 67.557 66.3ZM67.557 61.2C68.097 61.2 68.577 61.06 68.997 60.78C69.437 60.5 69.777 60.12 70.017 59.64C70.257 59.14 70.377 58.58 70.377 57.96C70.377 57.32 70.257 56.76 70.017 56.28C69.777 55.78 69.437 55.39 68.997 55.11C68.577 54.83 68.097 54.69 67.557 54.69C66.997 54.69 66.497 54.83 66.057 55.11C65.637 55.39 65.297 55.78 65.037 56.28C64.797 56.76 64.677 57.32 64.677 57.96C64.677 58.58 64.797 59.14 65.037 59.64C65.297 60.12 65.637 60.5 66.057 60.78C66.497 61.06 66.997 61.2 67.557 61.2Z" fill="#45ADE8"/>
<path d="M76.8316 66L85.2616 45H90.3616L98.7316 66H92.3116L88.9516 56.82C88.7316 56.2 88.5416 55.67 88.3816 55.23C88.2216 54.79 88.0816 54.38 87.9616 54C87.8416 53.6 87.7216 53.18 87.6016 52.74C87.4816 52.28 87.3616 51.74 87.2416 51.12H88.2616C88.1416 51.74 88.0216 52.28 87.9016 52.74C87.7816 53.18 87.6516 53.6 87.5116 54C87.3916 54.38 87.2416 54.79 87.0616 55.23C86.9016 55.67 86.7116 56.2 86.4916 56.82L83.1316 66H76.8316ZM81.0316 62.88L82.9216 58.47H92.6716L94.3816 62.88H81.0316ZM99.1345 72.57L96.8245 67.86C97.8445 67.86 98.6145 67.75 99.1345 67.53C99.6745 67.33 100.035 66.94 100.215 66.36C100.415 65.8 100.515 64.97 100.515 63.87V49.95H106.605V65.31C106.605 67.09 106.325 68.51 105.765 69.57C105.225 70.63 104.405 71.39 103.305 71.85C102.205 72.33 100.815 72.57 99.1345 72.57ZM103.635 47.04C102.555 47.04 101.705 46.79 101.085 46.29C100.485 45.79 100.185 45.08 100.185 44.16C100.185 43.32 100.495 42.63 101.115 42.09C101.735 41.55 102.575 41.28 103.635 41.28C104.715 41.28 105.555 41.53 106.155 42.03C106.775 42.53 107.085 43.24 107.085 44.16C107.085 45 106.775 45.69 106.155 46.23C105.535 46.77 104.695 47.04 103.635 47.04ZM116.191 66.33C114.971 66.33 113.941 66.08 113.101 65.58C112.261 65.08 111.621 64.35 111.181 63.39C110.741 62.41 110.521 61.23 110.521 59.85V49.95H116.611V59.34C116.611 59.78 116.681 60.15 116.821 60.45C116.981 60.75 117.201 60.98 117.481 61.14C117.761 61.3 118.101 61.38 118.501 61.38C118.801 61.38 119.071 61.34 119.311 61.26C119.571 61.16 119.791 61.02 119.971 60.84C120.151 60.66 120.291 60.46 120.391 60.24C120.491 60 120.541 59.75 120.541 59.49V49.95H126.631V66H121.051L120.691 62.76L121.831 62.4C121.611 63.16 121.221 63.84 120.661 64.44C120.121 65.02 119.461 65.48 118.681 65.82C117.901 66.16 117.071 66.33 116.191 66.33ZM130.889 66V49.95H136.529L136.829 53.19L135.539 53.55C135.759 52.79 136.149 52.12 136.709 51.54C137.289 50.94 137.979 50.47 138.779 50.13C139.579 49.79 140.429 49.62 141.329 49.62C142.529 49.62 143.549 49.87 144.389 50.37C145.229 50.87 145.859 51.61 146.279 52.59C146.719 53.55 146.939 54.72 146.939 56.1V66H140.849V56.61C140.849 56.17 140.779 55.8 140.639 55.5C140.499 55.2 140.289 54.97 140.009 54.81C139.729 54.65 139.399 54.57 139.019 54.57C138.719 54.57 138.439 54.62 138.179 54.72C137.939 54.8 137.729 54.93 137.549 55.11C137.369 55.29 137.229 55.49 137.129 55.71C137.029 55.93 136.979 56.18 136.979 56.46V66H133.949C133.189 66 132.549 66 132.029 66C131.529 66 131.149 66 130.889 66Z" fill="#FBA643"/>
</svg>
